<?xml version="1.0" standalone="no"?>
<!DOCTYPE svg PUBLIC "-//W3C//DTD SVG 20010904//EN"
 "http://www.w3.org/TR/2001/REC-SVG-20010904/DTD/svg10.dtd">
<svg version="1.0" xmlns="http://www.w3.org/2000/svg"
 width="1125.000000pt" height="1280.000000pt" viewBox="0 0 1125.000000 1280.000000"
 preserveAspectRatio="xMidYMid meet">

<g transform="translate(0.000000,1280.000000) scale(0.100000,-0.100000)"
fill="#000000" stroke="none">
<path d="M0 10655 l0 -2145 43 -1 c71 -2 81 -5 123 -32 37 -23 43 -33 58 -91
9 -36 16 -74 16 -86 0 -11 6 -19 12 -17 7 1 14 -9 16 -22 3 -17 0 -22 -10 -18
-23 8 -26 -73 -13 -285 6 -111 5 -129 -8 -134 -12 -4 -16 -21 -16 -69 0 -35
-7 -80 -16 -101 -14 -34 -14 -43 -1 -79 8 -22 17 -60 19 -85 3 -24 11 -46 16
-48 6 -2 11 -10 11 -18 0 -8 4 -14 10 -14 6 0 8 -20 5 -48 -3 -31 1 -58 10
-76 8 -16 15 -49 16 -75 0 -33 3 -40 8 -26 20 50 24 -212 7 -420 -10 -115 -16
-146 -27 -140 -5 4 -7 11 -4 16 4 5 2 9 -4 9 -6 0 -13 -11 -17 -23 -3 -14 -21
-32 -41 -43 -91 -48 -124 -75 -158 -126 -9 -16 -26 -28 -36 -28 -19 0 -19 -72
-19 -3215 l0 -3215 5625 0 5625 0 0 5935 c0 3934 -3 5935 -10 5935 -5 0 -37
-10 -71 -21 -52 -18 -77 -21 -173 -17 -61 3 -122 10 -134 17 -12 6 -75 14
-140 18 -95 5 -126 10 -168 30 -74 36 -144 99 -144 130 0 67 57 75 471 69 269
-5 292 -7 307 -24 10 -10 27 -24 40 -31 l22 -12 0 386 0 385 -5625 0 -5625 0
0 -2145z m7340 1170 c0 -18 -5 -25 -20 -25 -14 0 -18 5 -13 18 6 14 22 31 31
32 1 0 2 -11 2 -25z m-40 -55 c0 -5 -4 -10 -10 -10 -5 0 -10 5 -10 10 0 6 5
10 10 10 6 0 10 -4 10 -10z m-6935 -70 c3 -5 1 -10 -4 -10 -6 0 -11 5 -11 10
0 6 2 10 4 10 3 0 8 -4 11 -10z m9277 -7 c10 -9 18 -27 18 -40 0 -13 7 -35 16
-48 30 -46 0 -267 -50 -364 -11 -21 -14 -46 -9 -93 7 -75 -12 -125 -49 -130
-19 -2 -23 -10 -25 -38 -3 -62 -15 -100 -34 -111 -23 -12 -39 -68 -27 -92 17
-32 -13 -148 -40 -159 -10 -3 -1 -75 17 -143 6 -22 11 -64 11 -92 0 -53 6 -63
27 -42 7 7 17 8 28 2 22 -13 21 -21 -9 -47 -14 -12 -26 -27 -26 -34 0 -7 -4
-11 -9 -7 -5 3 -12 1 -16 -5 -3 -5 2 -10 12 -10 14 0 13 -3 -7 -17 -14 -9 -28
-21 -32 -27 -4 -6 -14 -4 -26 7 -10 9 -22 14 -26 10 -4 -4 -11 -1 -16 7 -7 11
-11 12 -25 0 -9 -7 -36 -13 -60 -12 -53 0 -61 -8 -35 -36 21 -22 11 -39 -15
-28 -8 3 -15 0 -15 -7 0 -9 28 -12 100 -13 87 0 104 -3 129 -22 17 -12 34 -22
39 -22 4 0 20 -5 34 -12 l25 -12 -53 -53 c-29 -29 -57 -53 -62 -53 -5 0 -18
-8 -30 -18 -18 -16 -19 -22 -9 -65 8 -35 15 -47 29 -47 10 0 18 -4 18 -9 0 -9
-80 -12 -80 -2 -1 3 -10 17 -21 30 -19 23 -20 23 -34 5 -13 -18 -15 -18 -49
15 -20 19 -36 41 -36 48 0 7 -4 13 -10 13 -5 0 -10 6 -10 14 0 18 71 30 82 13
5 -8 9 -6 14 6 3 9 10 14 15 11 5 -3 9 0 9 5 0 6 -5 11 -10 11 -6 0 -9 6 -8
13 2 6 -6 12 -17 13 -37 2 -42 4 -67 27 -24 21 -43 54 -40 70 1 4 -4 7 -12 7
-21 0 -30 20 -17 33 15 15 14 47 -1 47 -7 0 -24 12 -39 26 -33 31 -97 36 -146
11 -18 -10 -51 -17 -73 -17 -32 0 -48 -6 -69 -28 -16 -15 -33 -26 -39 -24 -11
3 -122 -104 -122 -119 0 -19 -42 -46 -64 -42 -13 3 -43 -5 -67 -17 -24 -13
-62 -24 -85 -25 -23 -2 -47 -6 -53 -9 -6 -4 -15 -5 -20 -2 -13 8 -20 45 -10
51 4 3 4 17 -1 31 -8 19 -6 28 9 43 10 10 21 25 24 32 4 10 6 9 6 -3 2 -41 41
-2 41 40 0 26 58 37 120 23 25 -6 52 -11 62 -11 14 0 123 80 139 103 4 5 22
19 41 31 98 60 108 68 108 91 0 12 11 39 25 59 14 20 25 39 25 41 0 8 51 55
60 55 22 0 120 152 120 186 0 18 56 102 102 151 12 13 25 45 29 74 6 38 16 60
39 82 39 38 56 70 65 124 3 22 15 49 26 59 10 9 19 25 19 35 0 10 4 20 9 24 5
3 21 41 36 86 15 44 40 106 56 137 16 31 29 69 29 85 0 15 5 27 10 27 6 0 10
11 10 24 0 13 3 38 6 55 7 36 35 42 66 14z m-9262 -26 c0 -8 17 -22 38 -31 22
-11 58 -45 92 -87 30 -39 69 -78 85 -89 17 -10 37 -28 45 -40 8 -12 30 -38 48
-58 32 -35 82 -127 82 -150 0 -7 4 -12 10 -12 5 0 17 -16 26 -35 9 -19 20 -35
26 -35 5 0 15 -15 23 -33 7 -18 29 -55 47 -82 19 -28 49 -76 66 -107 18 -31
36 -58 40 -60 4 -2 36 -38 72 -80 35 -43 68 -78 72 -78 4 0 12 -18 18 -41 8
-29 30 -59 75 -104 35 -35 80 -90 100 -122 21 -32 45 -65 54 -75 75 -76 106
-111 115 -130 6 -12 36 -36 67 -52 31 -16 64 -41 74 -55 17 -25 75 -72 124
-100 14 -7 34 -22 45 -32 11 -11 27 -19 35 -19 9 0 27 -10 41 -23 31 -28 163
-97 186 -97 9 0 33 -15 54 -32 20 -18 51 -41 69 -50 21 -12 33 -27 37 -47 4
-16 12 -32 20 -35 25 -10 15 -21 -31 -35 -41 -12 -48 -11 -73 5 -15 10 -49 31
-77 45 -27 15 -54 35 -60 46 -9 17 -75 102 -100 129 -6 6 -29 13 -52 16 -29 4
-56 18 -84 41 -34 30 -52 37 -105 42 -37 4 -69 14 -76 22 -7 8 -21 19 -33 24
-11 5 -35 18 -53 29 l-34 21 7 -31 c9 -39 -6 -39 -48 1 -17 16 -63 49 -102 72
-46 28 -71 49 -73 63 -4 25 -54 76 -80 81 -9 2 -34 6 -54 10 -38 6 -47 20 -27
40 16 16 3 46 -36 89 -22 24 -35 48 -35 65 0 42 -71 109 -115 109 -33 0 -34 1
-32 37 2 30 -2 38 -17 41 -22 5 -60 49 -63 72 -3 33 -16 60 -28 60 -19 0 -107
90 -102 104 18 47 17 52 -12 62 -18 7 -31 21 -35 40 -4 16 -30 62 -58 104 -29
43 -52 89 -53 108 -2 19 -17 47 -35 68 -35 41 -116 203 -124 249 -12 74 -10
175 4 175 6 0 10 -6 10 -13z m500 -1097 c0 -5 -5 -10 -11 -10 -5 0 -7 5 -4 10
3 6 8 10 11 10 2 0 4 -4 4 -10z m10320 -17 c0 -7 -4 -13 -10 -13 -5 0 -10 -6
-10 -14 0 -19 -19 -31 -31 -19 -6 6 -4 15 6 23 8 7 15 18 15 25 0 6 7 12 15
12 8 0 15 -6 15 -14z m-1840 -373 c0 -5 -7 -10 -15 -10 -8 0 -15 5 -15 10 0 6
7 10 15 10 8 0 15 -4 15 -10z m-200 -120 c0 -5 -5 -10 -11 -10 -5 0 -7 5 -4
10 3 6 8 10 11 10 2 0 4 -4 4 -10z m-75 -140 c3 -5 2 -10 -4 -10 -5 0 -13 5
-16 10 -3 6 -2 10 4 10 5 0 13 -4 16 -10z m-1580 -144 c-7 -16 -20 -33 -29
-38 -14 -8 -16 -3 -16 37 0 38 4 47 23 54 29 11 39 -13 22 -53z m1652 18 c48
-5 69 -13 88 -32 14 -13 25 -20 25 -14 0 7 16 5 45 -5 25 -8 45 -20 45 -26 0
-6 8 -19 17 -29 17 -19 16 -20 -7 -39 -14 -10 -30 -19 -36 -19 -26 0 -22 -29
4 -39 15 -5 38 -19 52 -30 l24 -19 -27 -13 c-23 -10 -34 -10 -60 0 -18 7 -50
16 -72 21 -22 4 -62 19 -89 33 -27 15 -55 27 -62 27 -7 0 -20 20 -29 45 -12
30 -26 48 -46 57 -19 8 -31 23 -35 42 -8 39 17 59 66 52 19 -3 63 -8 97 -12z
m-6805 -61 c22 -61 9 -83 -31 -53 -72 54 -74 56 -63 76 6 10 12 15 12 11 0 -5
10 -1 21 7 30 21 42 13 61 -41z m5188 -97 c0 -8 -7 -16 -15 -20 -15 -5 -21 14
-8 27 11 12 23 8 23 -7z m1870 -16 c0 -5 -2 -10 -4 -10 -3 0 -8 5 -11 10 -3 6
-1 10 4 10 6 0 11 -4 11 -10z m-1450 -27 c-25 -44 -66 -97 -77 -101 -24 -7
-13 20 20 52 19 17 37 39 40 49 4 9 11 17 17 17 7 0 8 -5 0 -17z m1068 9 c7
-5 15 -25 19 -45 5 -32 3 -38 -21 -48 -19 -9 -26 -20 -26 -41 0 -18 5 -28 15
-28 8 0 15 -8 15 -18 0 -22 39 -42 80 -42 23 0 30 -5 35 -29 3 -15 5 -46 4
-68 -2 -24 4 -49 14 -63 23 -33 21 -67 -3 -80 -11 -6 -24 -9 -28 -7 -4 3 -34
-5 -67 -17 l-60 -22 2 -47 3 -47 -44 -11 c-25 -6 -52 -20 -62 -30 -9 -10 -23
-19 -30 -19 -7 0 -29 -20 -48 -44 -30 -36 -37 -53 -40 -100 -4 -49 -2 -57 10
-52 11 4 14 1 12 -11 -2 -10 3 -25 10 -33 33 -38 63 -95 59 -112 -3 -10 2 -26
11 -35 9 -9 15 -27 14 -40 -3 -17 1 -23 16 -23 18 0 20 -6 18 -65 -2 -63 -1
-66 32 -96 28 -26 33 -36 27 -58 -3 -14 -7 -35 -8 -46 -1 -11 -10 -31 -19 -45
-10 -13 -18 -35 -18 -48 0 -19 3 -21 19 -13 33 18 42 -13 16 -63 -9 -17 -13
-42 -10 -60 7 -41 -8 -65 -32 -50 -15 10 -18 25 -17 88 1 41 -2 73 -7 71 -4
-3 -10 -1 -14 5 -4 7 -13 7 -26 -1 -17 -9 -20 -19 -18 -67 3 -52 1 -57 -19
-60 -13 -2 -28 -12 -35 -23 -6 -10 -17 -19 -23 -19 -11 0 -21 -21 -40 -85 -6
-19 -17 -31 -31 -33 -32 -5 -47 -80 -22 -106 12 -13 12 -49 0 -42 -5 3 -22 -1
-37 -9 -16 -8 -48 -15 -71 -15 -23 0 -57 -6 -75 -14 -18 -8 -46 -19 -63 -26
l-30 -12 25 -10 c13 -5 47 -6 76 -2 34 4 54 2 59 -5 9 -16 -10 -38 -41 -45
-14 -4 -42 -18 -62 -31 -32 -21 -48 -24 -122 -23 -105 2 -132 -6 -128 -35 2
-14 9 -20 18 -18 36 11 110 12 128 2 14 -7 23 -8 27 -1 11 18 47 12 43 -7 -2
-11 -13 -18 -26 -18 -13 0 -27 -6 -31 -13 -18 -29 -61 -42 -119 -36 -45 5 -60
3 -70 -9 -11 -13 -10 -20 4 -42 16 -24 21 -26 97 -24 66 1 81 -1 89 -15 8 -13
22 -17 66 -16 31 1 74 -1 95 -5 30 -6 37 -5 37 8 0 25 30 109 49 134 9 12 22
23 30 23 7 0 34 20 59 45 25 25 49 45 54 45 5 0 21 9 36 20 15 11 42 22 60 25
19 2 40 9 47 15 11 9 17 1 30 -45 17 -56 16 -56 -6 -76 -32 -28 -14 -64 36
-72 21 -3 46 -14 56 -23 23 -20 25 -75 5 -107 -11 -16 -12 -35 -6 -72 4 -27 4
-54 0 -60 -14 -18 -33 -89 -39 -145 -6 -51 -8 -55 -34 -58 -16 -2 -34 1 -41 7
-7 6 -16 8 -19 4 -12 -11 -8 -69 7 -111 14 -40 11 -109 -8 -153 -4 -9 -1 -21
8 -28 13 -11 11 -17 -19 -46 -43 -40 -47 -81 -10 -121 31 -33 31 -38 1 -32
-37 7 -51 -7 -52 -52 0 -30 -8 -48 -30 -73 -28 -30 -30 -37 -27 -97 1 -36 5
-86 9 -111 5 -40 3 -50 -20 -74 -15 -16 -29 -45 -32 -66 -4 -21 -15 -46 -25
-55 -11 -9 -19 -23 -19 -31 0 -8 -23 -38 -51 -68 -40 -43 -50 -59 -47 -82 2
-20 -5 -37 -28 -60 -49 -52 -59 -78 -47 -123 8 -31 7 -42 -5 -54 -13 -13 -13
-20 6 -63 l21 -48 -26 -7 c-30 -8 -43 -24 -43 -52 0 -10 -8 -24 -17 -31 -15
-11 -15 -15 5 -55 23 -48 21 -60 -11 -60 -39 0 -49 -14 -42 -54 7 -34 6 -36
-21 -36 -34 0 -29 -6 11 -14 17 -3 72 -14 123 -25 52 -11 130 -23 175 -26 102
-8 215 -30 205 -40 -2 -3 -67 4 -144 14 -180 25 -344 35 -364 22 -24 -17 14
-37 105 -56 44 -10 121 -28 170 -42 50 -13 133 -33 185 -44 52 -11 109 -27
125 -35 29 -15 29 -15 -30 -10 -33 3 -89 14 -124 26 -35 11 -151 31 -257 45
-162 21 -201 23 -243 13 -42 -9 -50 -15 -53 -36 -3 -21 -11 -30 -47 -49 -2 -1
-9 -30 -16 -65 -8 -35 -19 -85 -26 -112 -12 -46 -12 -49 12 -68 36 -28 157
-83 304 -138 241 -89 342 -138 389 -188 17 -18 69 -55 116 -83 138 -81 178
-111 309 -227 29 -25 40 -41 33 -46 -7 -4 -12 -1 -12 8 0 9 -4 16 -10 16 -5 0
-10 -4 -10 -10 0 -16 -31 1 -68 39 -20 20 -44 41 -53 46 -10 6 -46 30 -81 55
-163 118 -472 284 -675 364 -48 19 -115 46 -148 60 -33 14 -75 26 -92 26 -32
0 -33 -1 -33 -40 0 -22 -4 -40 -9 -40 -9 0 -26 -38 -35 -83 -4 -15 -14 -35
-24 -45 -34 -34 -55 -77 -59 -117 -2 -22 -6 -66 -9 -98 -4 -38 -2 -57 5 -57 6
0 10 -4 8 -9 -3 -10 34 -54 121 -143 36 -37 63 -70 60 -74 -4 -3 -41 22 -83
56 -63 50 -179 120 -199 120 -12 0 37 -80 73 -120 22 -24 38 -46 36 -49 -2 -2
-25 11 -51 28 -26 17 -57 32 -68 33 -12 0 -32 3 -46 5 -14 2 -55 5 -92 7 -66
3 -68 2 -68 -20 0 -13 -6 -24 -13 -24 -8 0 -37 -22 -65 -49 -37 -36 -52 -58
-53 -78 -2 -58 -6 -74 -28 -97 -12 -13 -35 -26 -49 -29 -48 -9 -135 -46 -161
-69 -33 -29 -67 -48 -85 -48 -8 0 -16 -6 -19 -14 -3 -8 -24 -17 -46 -21 -23
-4 -41 -11 -41 -16 0 -5 -8 -9 -18 -9 -30 0 -56 -35 -43 -57 7 -14 6 -30 -2
-55 -22 -63 -30 -67 -110 -61 -100 9 -114 7 -132 -11 -19 -19 -46 -21 -62 -5
-8 8 -23 7 -57 -6 -42 -16 -47 -22 -60 -66 -8 -27 -22 -64 -32 -84 -11 -24
-15 -50 -11 -80 3 -28 0 -48 -7 -53 -6 -4 -56 -8 -111 -9 -170 -2 -193 -7
-228 -45 -17 -18 -34 -32 -37 -31 -3 1 -23 -2 -43 -7 -21 -4 -39 -4 -43 1 -3
5 -15 2 -28 -6 -26 -17 -32 -13 -52 33 -12 29 -17 32 -47 30 -34 -2 -35 -3
-42 -57 -4 -31 -8 -70 -9 -88 -4 -45 -22 -64 -55 -57 -14 4 -30 11 -36 15 -28
27 -69 -7 -59 -48 9 -34 -13 -36 -37 -3 -13 16 -31 30 -41 30 -10 0 -18 6 -18
13 0 7 -9 21 -21 31 -20 17 -22 17 -45 -5 -13 -12 -24 -29 -24 -37 0 -11 -10
-13 -47 -9 -63 7 -106 -14 -97 -47 4 -17 -1 -27 -20 -39 -31 -21 -36 -21 -36
-3 0 7 -6 19 -14 25 -7 6 -19 32 -27 58 l-13 46 -15 -31 c-19 -40 -52 -42
-115 -7 -54 30 -61 30 -110 5 -25 -12 -45 -16 -55 -11 -27 14 -95 21 -111 11
-9 -6 -17 -5 -22 3 -5 8 -8 4 -8 -10 0 -13 -4 -23 -10 -23 -5 0 -17 -15 -26
-32 -9 -18 -39 -55 -67 -82 -31 -32 -50 -59 -51 -75 -1 -27 -9 -39 -41 -58
-11 -6 -19 -15 -18 -21 3 -14 -75 -74 -88 -67 -5 4 -16 2 -23 -4 -10 -9 -21
-5 -44 17 -29 27 -30 32 -21 66 16 58 7 62 -40 17 -33 -32 -41 -45 -36 -62 5
-15 4 -19 -4 -15 -6 4 -23 -6 -37 -23 -14 -17 -34 -31 -45 -31 -20 0 -44 34
-34 50 3 6 3 16 -2 23 -4 6 -8 24 -9 39 -1 14 -9 36 -17 48 -16 23 -16 23 -45
-23 -28 -44 -30 -46 -46 -29 -9 10 -16 28 -16 39 0 11 -7 26 -15 33 -9 7 -14
19 -11 26 7 19 -17 23 -36 6 -33 -28 -48 -8 -48 63 0 39 -4 65 -11 65 -6 0 -8
-9 -4 -20 5 -15 2 -20 -13 -20 -24 0 -72 -54 -72 -81 0 -10 -4 -19 -10 -19 -5
0 -10 -16 -10 -35 0 -26 -6 -39 -26 -51 -17 -12 -22 -20 -15 -27 6 -6 11 -18
11 -26 0 -19 -49 -82 -50 -64 0 6 -15 13 -32 15 -32 3 -33 5 -36 52 -2 32 -9
54 -20 63 -11 8 -12 12 -4 13 19 0 14 20 -6 20 -17 0 -43 -17 -108 -73 -39
-33 -79 -34 -79 -2 0 16 -8 21 -45 25 -38 4 -45 8 -42 25 2 11 5 35 6 53 2 19
8 37 15 42 9 5 8 9 -5 14 -16 6 -33 -7 -34 -26 0 -4 -13 -21 -28 -38 -21 -22
-34 -29 -47 -24 -15 6 -17 4 -12 -15 3 -13 3 -20 0 -17 -4 3 -12 1 -19 -5 -16
-13 -48 -4 -39 11 3 5 -7 16 -22 22 -15 7 -34 18 -41 25 -7 7 -19 13 -25 13
-7 0 -18 9 -25 21 -8 13 -19 18 -29 14 -9 -3 -20 0 -24 6 -5 9 -14 8 -34 -5
-38 -25 -55 -15 -48 28 4 25 2 36 -6 36 -7 0 -9 5 -5 12 9 14 12 58 6 76 -6
18 -17 15 -43 -13 -13 -13 -30 -25 -36 -25 -7 0 -13 -4 -13 -10 0 -5 -11 -10
-25 -10 -15 0 -28 -7 -32 -17 -4 -10 -20 -31 -36 -47 -28 -28 -30 -29 -43 -12
-7 10 -10 24 -7 32 3 8 1 14 -5 14 -5 0 -13 11 -16 24 -8 34 -33 56 -62 56
-19 0 -24 5 -24 24 0 23 -2 24 -59 19 -58 -5 -60 -5 -66 20 -5 17 3 46 25 93
17 37 30 76 28 87 -4 25 -38 48 -45 30 -3 -7 -13 -13 -22 -13 -19 0 -54 -34
-64 -61 -3 -9 -18 -19 -34 -22 -15 -3 -40 -9 -54 -12 -21 -5 -27 -3 -31 12 -5
17 -13 19 -67 15 l-61 -4 0 88 c-1 59 -5 95 -14 107 -10 13 -15 15 -19 5 -4
-10 -7 -11 -18 0 -17 16 -40 15 -75 -3 -37 -19 -64 -19 -64 0 0 8 4 15 8 15
18 0 52 42 52 65 0 13 8 29 17 35 13 8 14 13 6 16 -18 8 -16 44 1 44 8 0 16 7
20 15 3 8 11 15 18 15 17 0 78 55 78 69 0 6 -3 11 -8 11 -10 0 -55 -31 -64
-44 -4 -6 -8 -8 -8 -4 0 3 -20 -4 -46 -18 -49 -26 -118 -32 -131 -11 -7 12
-57 47 -66 47 -3 0 -7 -9 -10 -21 -9 -33 -42 -20 -43 17 -1 44 -12 57 -45 50
-37 -7 -36 0 1 36 43 41 40 72 -10 103 -23 14 -43 32 -46 40 -5 12 37 80 60
96 19 14 -7 29 -50 29 -33 0 -47 5 -56 20 -7 11 -18 20 -24 20 -12 0 -7 41 6
50 10 7 40 67 40 79 0 13 -64 31 -89 24 -10 -2 -22 0 -25 6 -4 6 -3 11 3 11
15 0 2 61 -17 83 -8 9 -22 17 -31 17 -41 1 -69 66 -42 95 10 11 -8 110 -23
135 -6 8 -9 29 -8 47 2 28 -2 35 -25 44 -33 12 -43 26 -43 60 0 21 8 29 48 46
70 30 112 40 162 42 80 2 124 13 160 40 47 35 51 42 46 73 -6 33 12 48 29 25
7 -10 17 -17 23 -17 15 0 23 28 9 33 -7 2 17 7 53 11 36 4 88 10 115 14 l50 7
15 -45 c18 -53 37 -60 107 -36 26 9 61 16 78 16 31 0 62 17 98 53 14 14 20 35
21 71 1 50 -1 55 -47 100 -26 26 -44 52 -41 58 4 6 0 14 -7 19 -12 8 -12 11 1
19 11 7 8 9 -15 7 -28 -2 -30 0 -28 30 3 31 2 32 -40 35 -34 2 -43 7 -45 25
-4 26 -88 73 -132 73 -17 0 -33 6 -36 14 -7 18 17 65 45 90 42 38 18 48 -46
19 -21 -10 -46 -24 -55 -32 -27 -22 -21 1 10 45 37 51 50 61 90 66 21 3 32 0
32 -8 0 -22 15 -24 71 -9 49 13 55 13 66 -2 7 -9 13 -25 13 -35 0 -16 6 -17
54 -12 l54 7 -1 -49 c-2 -44 0 -49 21 -52 16 -2 22 -10 22 -27 0 -32 57 -66
66 -40 3 8 14 15 23 15 10 0 26 7 37 15 27 20 34 19 34 -7 0 -33 13 -48 41
-48 85 -1 162 -9 172 -19 21 -21 54 -11 103 34 27 25 58 54 69 65 12 10 33 24
48 31 15 7 27 17 28 23 0 6 4 2 8 -9 11 -26 1 -37 -75 -87 -35 -23 -61 -45
-58 -50 3 -4 1 -8 -5 -8 -6 0 -8 -6 -5 -13 2 -7 23 -13 48 -15 35 -1 49 4 70
24 15 16 32 24 41 20 9 -3 24 0 35 6 15 10 22 9 38 -5 26 -23 40 -21 54 7 14
32 5 54 -23 58 -33 5 -34 23 0 55 24 23 28 34 24 60 -5 29 -9 33 -49 39 -31 4
-44 11 -44 23 0 13 2 13 9 2 7 -11 15 -7 40 18 36 37 40 67 10 76 -11 4 -52 4
-91 0 -67 -7 -69 -6 -60 12 6 10 22 25 36 33 14 7 26 21 26 30 0 10 7 23 15
30 9 7 14 19 11 26 -12 30 56 58 82 32 9 -9 13 -7 19 8 3 10 15 25 26 33 10 7
17 21 14 31 -3 13 8 21 48 35 29 9 58 14 64 11 6 -4 28 -4 48 0 32 6 35 8 18
16 -15 6 -12 7 10 2 17 -3 40 -15 52 -26 12 -11 29 -18 37 -15 17 7 17 47 0
47 -6 0 -17 7 -24 15 -8 9 -27 15 -49 14 -20 -1 -49 1 -66 5 -24 6 -36 2 -59
-19 -16 -14 -37 -25 -46 -25 -9 0 -20 -3 -24 -7 -4 -5 -12 -8 -16 -8 -5 0 -15
-8 -23 -19 -11 -15 -21 -17 -55 -11 -23 4 -42 11 -42 17 0 18 -54 68 -74 68
-18 0 -18 1 -1 20 19 21 50 27 60 11 3 -5 1 -12 -5 -16 -21 -13 -9 -27 17 -22
18 3 40 -2 62 -16 l34 -20 18 22 c11 13 19 27 19 31 0 16 -104 110 -122 110
-10 0 -18 6 -18 14 0 16 21 26 53 26 12 0 33 9 47 20 16 12 42 20 70 21 53 1
122 20 127 34 2 6 -11 16 -28 22 -17 7 -28 17 -24 22 4 7 -3 11 -17 11 -16 0
-19 -3 -10 -8 8 -6 -1 -13 -30 -21 -24 -7 -54 -19 -68 -25 -14 -7 -36 -10 -50
-6 -24 6 -24 6 -4 12 23 6 36 38 23 59 -6 11 -18 11 -66 -1 -65 -17 -71 -30
-21 -44 18 -5 35 -11 37 -12 8 -7 -54 -51 -66 -47 -13 5 -58 72 -52 77 2 2 14
9 27 15 26 14 30 56 6 65 -8 3 -24 1 -35 -4 -22 -12 -21 -13 -24 18 -2 21 1
23 26 18 22 -4 31 -1 40 16 9 17 7 24 -9 41 -18 17 -23 18 -36 7 -9 -7 -16
-18 -16 -25 0 -10 -18 -13 -67 -11 -59 2 -67 5 -75 26 -5 14 -5 27 1 33 14 14
83 14 88 0 6 -15 39 -17 48 -3 14 22 -9 50 -60 76 -62 30 -77 28 -96 -15 -10
-22 -22 -31 -47 -36 -36 -7 -64 8 -56 30 3 7 1 16 -5 20 -6 3 -14 -1 -17 -9
-3 -8 -29 -23 -57 -32 -29 -9 -56 -20 -62 -24 -6 -5 -11 9 -12 38 -1 26 -5 57
-8 69 -4 17 1 25 22 35 27 13 45 58 24 58 -6 0 -26 14 -45 30 -30 27 -37 29
-60 19 -22 -10 -29 -9 -46 6 -21 19 -22 53 -4 117 5 19 35 33 43 20 3 -4 17
-9 32 -10 18 -1 30 6 42 28 l18 29 -42 -4 c-24 -3 -46 -10 -50 -16 -5 -8 -8
-8 -14 1 -10 16 -4 19 43 23 23 3 47 9 54 14 7 5 21 13 30 16 31 11 20 29 -14
25 -32 -3 -33 -2 -30 30 2 18 -1 39 -7 46 -8 10 -4 16 16 25 22 10 28 10 35
-3 6 -11 24 -16 62 -16 47 0 57 4 85 32 17 17 32 38 32 45 1 7 2 17 3 23 3 23
48 42 86 36 32 -5 44 -2 68 19 38 32 50 32 57 -2 3 -16 14 -57 25 -93 11 -36
29 -103 42 -150 12 -47 27 -92 34 -100 6 -8 15 -26 19 -40 18 -62 118 -207
214 -310 32 -34 221 -154 281 -178 169 -68 422 -98 560 -67 41 9 97 19 125 22
27 3 71 19 97 34 52 31 89 36 135 18 34 -13 43 -25 43 -66 0 -17 4 -34 8 -37
5 -3 12 -48 15 -100 4 -53 13 -112 22 -132 19 -46 19 -131 0 -167 -15 -28 -15
-124 -1 -158 8 -19 81 -50 100 -43 7 3 19 -11 29 -31 9 -19 23 -35 32 -35 14
0 19 -11 16 -37 -1 -6 10 -23 23 -36 19 -19 38 -26 78 -29 45 -2 56 -7 70 -30
10 -16 28 -28 44 -30 22 -2 27 -8 29 -36 2 -23 13 -43 38 -65 70 -64 159 -127
181 -127 24 0 176 -136 176 -157 0 -6 44 -51 97 -100 53 -48 107 -99 118 -112
15 -16 33 -24 60 -25 36 -1 39 1 47 33 6 20 37 65 74 105 54 60 65 80 75 126
17 85 30 101 112 142 42 20 82 47 90 58 8 12 38 45 66 75 54 56 58 79 15 71
-20 -4 -24 -1 -24 19 0 13 10 32 23 42 22 18 67 99 67 121 0 6 15 19 33 28 17
9 39 22 47 29 8 7 26 15 40 19 14 3 34 21 45 39 17 26 28 33 65 37 29 3 59 16
84 35 34 26 39 27 48 12 5 -9 16 -17 24 -17 19 0 10 36 -17 66 -11 11 -19 30
-19 41 0 12 -5 23 -11 25 -7 2 -1 16 15 32 14 16 26 32 26 36 0 4 9 10 20 13
13 3 20 14 20 31 0 31 -42 82 -59 72 -9 -6 -9 -11 -1 -21 8 -10 8 -19 0 -34
-12 -23 -51 -28 -94 -11 -19 7 -26 6 -26 -2 0 -13 -7 -8 -11 7 -1 6 -10 16
-20 23 -15 10 -17 21 -13 56 4 27 2 46 -5 50 -6 4 -11 21 -11 38 0 21 6 31 20
35 13 3 22 17 26 39 3 18 17 47 30 65 16 22 24 46 24 74 0 66 16 79 102 83 51
3 99 -3 159 -17 93 -23 183 -27 251 -12 239 52 271 64 378 143 136 100 202
171 251 268 24 47 53 99 64 115 19 29 50 129 75 245 6 30 18 69 26 87 15 34 9
67 -11 59 -22 -8 -25 33 -4 53 16 15 20 33 22 95 1 42 5 76 10 76 14 0 7 19
-14 39 -16 15 -27 18 -39 11 -28 -15 -87 -18 -136 -8 -41 9 -49 7 -84 -16 -22
-14 -48 -26 -58 -26 -27 0 -159 -46 -195 -69 -65 -40 -233 -120 -277 -131 -25
-7 -52 -18 -60 -25 -8 -7 -35 -21 -60 -31 -25 -10 -117 -65 -205 -123 -167
-111 -319 -248 -332 -301 -3 -14 -12 -34 -19 -45 -7 -11 -20 -47 -28 -81 -15
-57 -16 -88 -15 -414 0 -25 -2 -58 -5 -75 -2 -16 -5 -33 -5 -37 -1 -4 -7 -5
-15 -2 -8 3 -28 -2 -46 -11 -29 -15 -31 -19 -25 -54 8 -46 -8 -62 -56 -56 -19
2 -42 2 -51 -1 -26 -8 -24 -65 3 -87 29 -25 21 -51 -18 -55 -24 -2 -37 -12
-54 -39 -22 -35 -22 -36 -5 -68 18 -33 18 -72 0 -197 -6 -39 -51 -94 -111
-137 -18 -12 -33 -29 -33 -37 0 -8 -12 -20 -27 -26 -16 -6 -47 -20 -70 -30
-39 -18 -44 -18 -92 -2 -28 9 -51 20 -51 25 0 22 -19 6 -22 -18 -3 -24 -7 -28
-33 -26 -17 1 -37 12 -46 25 -16 21 -19 21 -44 8 -26 -14 -28 -13 -51 15 -13
16 -23 39 -23 50 0 38 -19 109 -33 119 -8 6 -20 26 -27 44 -10 24 -20 32 -38
32 -22 0 -24 3 -19 25 3 13 -1 44 -10 67 -28 76 -27 105 3 165 15 30 38 59 50
64 12 4 26 23 33 44 10 32 15 36 36 31 16 -4 30 0 44 14 12 12 37 26 58 33 47
15 50 34 13 73 -17 18 -28 34 -25 37 9 9 -30 47 -48 47 -23 0 -23 -18 0 -43
17 -19 16 -20 -38 -14 -61 6 -112 16 -119 23 -3 2 4 10 14 18 11 8 16 20 12
29 -3 9 -2 19 3 22 6 4 10 19 10 34 0 33 20 54 43 46 9 -4 13 -14 9 -27 -4
-17 -2 -20 12 -15 10 4 31 7 47 7 24 0 29 4 29 25 0 29 34 47 69 38 18 -5 48
6 101 36 54 31 67 33 94 16 16 -11 35 -15 51 -11 14 4 25 2 25 -3 0 -16 80
-34 123 -28 46 6 77 32 77 63 0 13 11 40 25 60 14 20 25 45 25 56 0 28 28 78
69 123 21 22 57 69 80 105 52 77 90 120 107 120 19 0 94 92 94 115 0 11 -9 26
-20 33 -12 7 -20 8 -20 2 0 -5 -5 -10 -11 -10 -5 0 -8 4 -4 9 3 5 1 13 -5 16
-6 4 -26 -7 -46 -24 -40 -36 -47 -37 -69 -15 -13 14 -23 14 -58 6 -31 -8 -43
-8 -49 1 -9 13 -28 -8 -28 -31 0 -7 -4 -11 -8 -8 -5 3 -18 -2 -28 -12 -10 -9
-36 -26 -57 -37 -39 -21 -53 -49 -44 -87 4 -12 -4 -41 -19 -70 -24 -46 -26
-49 -39 -31 -8 10 -15 26 -15 36 0 9 -6 17 -14 17 -13 0 -46 66 -46 92 0 6
-11 21 -25 34 -32 30 -31 37 5 76 31 32 38 48 20 48 -5 0 -10 -4 -10 -9 0 -7
-35 -8 -62 -3 -17 4 -6 39 22 72 17 19 30 39 30 46 0 21 26 36 37 22 15 -18
26 -105 15 -112 -17 -10 -11 -56 7 -56 9 0 22 -5 29 -12 8 -8 15 -8 21 -2 7 7
31 150 31 185 0 4 8 10 18 13 9 3 25 20 34 37 16 27 16 32 3 53 -9 13 -16 40
-17 61 -1 30 4 42 25 57 30 22 43 68 27 98 -6 11 -8 35 -4 56 5 28 10 35 25
31 13 -3 16 0 12 12 -3 9 2 6 12 -7 17 -24 27 -92 13 -92 -5 0 -8 -9 -8 -20 0
-40 31 -20 56 37 19 42 23 62 16 77 -5 12 -8 58 -7 103 2 63 8 91 24 118 11
20 21 47 21 61 0 14 9 42 20 62 10 20 21 44 24 52 3 8 10 22 15 30 23 37 49
109 55 154 4 27 12 56 16 65 5 9 12 41 15 71 4 30 20 80 35 110 56 105 68 136
75 190 12 94 59 179 78 143 2 -5 1 -48 -3 -98 -4 -49 -3 -102 2 -117 6 -17 6
-33 0 -44 -7 -12 -5 -28 4 -50 15 -37 12 -142 -6 -189 -19 -49 -30 -338 -15
-405 4 -19 11 -40 16 -46 14 -18 13 -344 -1 -379 -6 -16 -12 -70 -11 -120 0
-49 -3 -116 -7 -147 -7 -50 -6 -57 9 -61 29 -8 161 64 181 98 26 44 38 74 38
95 0 11 11 36 25 56 16 23 25 51 25 75 0 49 32 151 59 185 11 15 21 36 21 47
0 11 15 38 34 61 48 59 63 94 69 156 3 30 8 69 12 86 5 21 2 39 -8 55 -14 21
-14 26 -1 43 8 11 14 32 14 47 0 15 7 40 15 55 8 16 15 39 15 50 0 23 23 48
33 37 4 -3 7 -21 7 -40 0 -40 24 -55 45 -27 22 29 19 54 -6 54 -39 0 -48 28
-49 136 0 91 -2 103 -21 115 -20 14 -20 15 16 49 31 30 38 33 55 22 12 -7 36
-9 63 -6 42 6 44 5 49 -21 4 -17 1 -28 -8 -32 -10 -4 -9 -9 4 -22 26 -27 47
-31 73 -13 25 18 108 102 134 137 15 20 15 20 30 0 13 -16 19 -18 35 -7 32 20
38 14 33 -30 -5 -35 -15 -52 -59 -95 -30 -29 -54 -56 -54 -60 0 -5 -15 -24
-33 -43 -19 -19 -42 -57 -52 -85 -10 -27 -22 -55 -27 -61 -6 -8 0 -14 17 -18
14 -4 25 -14 25 -24 0 -9 3 -28 7 -41 4 -16 3 -22 -5 -17 -12 7 -26 -29 -17
-45 5 -6 12 -3 22 10 9 14 21 19 36 16 14 -3 39 6 69 24 36 24 45 34 41 51 -4
14 -1 20 10 20 8 0 20 14 26 32 14 40 39 68 55 62 7 -3 19 2 26 11 7 8 21 15
31 15 11 0 19 7 19 15 0 8 -4 15 -10 15 -5 0 -10 7 -10 15 0 22 17 18 23 -5 3
-11 13 -20 22 -20 11 0 15 -5 11 -15 -4 -11 2 -15 21 -15 25 0 25 1 10 18 -25
28 -22 52 7 52 15 0 34 12 51 31 14 17 29 29 32 25 3 -3 21 6 40 20 18 14 33
20 33 14 0 -16 -39 -70 -70 -98 l-25 -22 22 -18 c13 -12 18 -24 13 -31 -5 -9
-10 -10 -14 -2 -9 14 -43 14 -52 0 -13 -22 13 -30 62 -17 64 16 79 27 59 42
-17 12 -11 45 9 47 44 3 58 9 82 32 15 15 31 27 35 27 5 0 9 7 9 15 0 16 -16
20 -24 6 -7 -11 -96 21 -96 35 0 5 7 19 15 30 19 26 19 29 -10 58 -40 40 -65
43 -92 10 -46 -57 -53 -61 -93 -60 -22 0 -40 2 -40 4 0 2 12 33 26 69 20 49
25 77 21 110 -2 24 -7 46 -10 49 -11 12 -91 -19 -114 -44 -16 -18 -36 -27 -56
-28 -18 -1 -43 -5 -57 -9 -24 -8 -23 -7 8 31 18 21 39 46 46 54 8 8 22 33 31
55 9 22 27 63 40 90 33 72 35 82 21 94 -13 11 -53 5 -73 -12 -24 -18 -5 31 23
63 50 56 64 74 64 86 0 8 10 20 23 28 12 9 51 49 87 91 36 41 71 75 78 75 7 0
20 7 28 15 11 11 12 15 3 15 -17 0 -2 13 19 16 9 2 29 6 45 10 24 6 27 4 27
-19 0 -14 4 -29 10 -32 12 -7 111 69 126 97 11 20 11 20 17 -1 6 -26 30 -27
54 -2 10 10 33 26 51 35 17 9 32 20 32 24 0 9 105 79 153 102 36 18 35 40 -2
40 -39 0 -61 -9 -61 -26 0 -8 -3 -14 -7 -15 -5 -1 -22 -2 -38 -4 -17 -1 -44
-15 -61 -31 -27 -25 -40 -29 -93 -31 -34 0 -68 -7 -77 -13 -8 -7 -18 -10 -21
-6 -4 4 -2 11 5 15 10 6 9 11 -3 21 -23 19 -38 0 -38 -50 0 -26 -5 -44 -13
-47 -8 -3 -12 -9 -9 -13 3 -5 1 -11 -5 -15 -5 -3 -10 3 -10 14 0 10 -6 22 -12
25 -10 5 -10 7 0 12 16 8 15 24 -1 24 -14 0 -57 33 -57 43 0 4 6 4 14 1 16 -6
78 27 78 41 -1 5 -14 13 -30 17 -38 10 -33 37 12 73 17 14 39 32 48 41 9 9 21
13 26 10 15 -9 3 -41 -24 -67 -30 -28 -30 -40 -1 -59 34 -23 64 -22 70 2 3 11
10 17 16 14 7 -5 9 3 6 21 -9 46 46 95 190 173 66 36 77 37 73 8 -2 -16 -19
-32 -53 -50 -27 -15 -66 -40 -85 -57 -32 -28 -33 -30 -13 -31 33 0 111 41 116
62 3 11 18 21 36 24 17 4 31 10 31 15 0 17 25 9 38 -11 16 -26 40 -25 44 2 4
29 25 34 33 8 3 -11 11 -18 16 -15 5 4 9 2 9 -4 0 -7 23 -9 60 -7 55 3 62 7
99 46 23 25 53 45 73 50 45 11 51 11 66 2z m-2833 -30 c0 -18 -20 -15 -23 4
-3 10 1 15 10 12 7 -3 13 -10 13 -16z m250 -172 c3 -11 13 -20 21 -20 20 0 17
-23 -7 -65 -16 -27 -27 -35 -48 -34 -14 1 -33 0 -41 -2 -24 -7 -23 34 3 71 12
19 26 43 30 53 9 23 34 22 42 -3z m1365 -14 c0 -24 -22 -51 -33 -40 -3 3 -4
12 -1 20 2 8 6 21 9 29 7 24 25 17 25 -9z m-246 -48 c0 -18 -4 -45 -8 -60 -7
-24 -10 -25 -27 -15 -20 12 -27 67 -9 67 6 0 10 6 10 13 0 15 20 38 29 33 3
-2 6 -19 5 -38z m104 26 c13 -4 22 -14 22 -26 0 -11 5 -28 10 -38 8 -16 4 -29
-25 -70 -19 -27 -35 -56 -35 -63 0 -17 -29 -57 -42 -57 -14 0 0 106 19 144 8
15 15 48 16 72 1 24 4 44 7 44 3 0 15 -3 28 -6z m-383 -103 c-8 -17 -18 -31
-20 -31 -13 0 -3 69 13 88 l17 21 3 -24 c2 -13 -4 -37 -13 -54z m585 58 c0
-19 1 -19 22 -5 28 20 48 20 84 1 19 -9 32 -11 38 -5 6 6 18 10 28 10 14 0 18
-8 18 -36 0 -19 -5 -45 -12 -57 -7 -12 -12 -29 -12 -38 -1 -9 -35 -47 -76 -84
-41 -38 -81 -77 -88 -87 -7 -10 -28 -26 -45 -35 -44 -22 -97 -66 -97 -79 0
-19 -45 -61 -75 -71 -22 -7 -32 -20 -43 -53 -11 -32 -12 -45 -3 -48 15 -5 14
-21 -4 -38 -13 -14 -15 -12 -15 18 0 19 -4 38 -10 44 -9 9 2 38 46 127 8 16
14 35 14 43 0 8 7 14 15 14 8 0 16 8 16 18 1 15 2 15 6 1 2 -11 11 -15 22 -12
21 5 45 74 36 103 -5 15 -3 18 9 14 11 -4 16 -1 16 10 0 14 -12 20 -32 17 -27
-4 8 122 37 132 8 4 15 13 15 21 0 8 9 17 20 21 11 3 27 22 36 41 18 38 34 45
34 13z m-108 -11 c-7 -7 -12 -8 -12 -2 0 14 12 26 19 19 2 -3 -1 -11 -7 -17z
m-292 -47 c0 -20 -13 -35 -23 -25 -7 8 4 44 14 44 5 0 9 -9 9 -19z m-5026 -56
c9 -14 22 -25 29 -24 23 2 57 -13 57 -27 0 -9 11 -14 30 -14 17 0 30 -4 30 -8
0 -16 -41 -47 -48 -37 -10 15 -72 37 -115 42 -41 6 -56 24 -52 63 3 32 1 30
29 30 14 0 30 -10 40 -25z m5664 13 c-5 -15 -48 -24 -48 -10 0 14 12 22 33 22
10 0 17 -5 15 -12z m-5808 -18 c12 -8 9 -10 -12 -10 -16 0 -28 5 -28 10 0 13
20 13 40 0z m5211 -44 c-5 -6 -15 -43 -21 -80 -11 -68 -30 -119 -50 -131 -20
-12 -22 27 -5 68 9 23 23 58 30 77 8 19 18 48 24 63 6 16 16 25 21 22 7 -5 8
-11 1 -19z m1719 14 c0 -5 -4 -10 -10 -10 -5 0 -10 5 -10 10 0 6 5 10 10 10 6
0 10 -4 10 -10z m-2688 -77 c-8 -41 -23 -24 -18 20 6 55 7 56 15 27 4 -14 5
-35 3 -47z m-4349 18 c23 -6 59 -13 80 -16 31 -5 37 -10 37 -29 0 -16 11 -31
32 -44 l32 -20 -40 -7 c-55 -9 -64 -13 -30 -14 40 -1 66 -27 66 -67 0 -22 5
-34 16 -36 13 -2 11 -9 -10 -41 -14 -21 -26 -42 -26 -47 0 -5 -10 -12 -22 -16
-13 -4 -26 -12 -30 -18 -4 -7 -46 -12 -105 -12 -81 -2 -99 -5 -101 -18 -2 -9
3 -16 11 -16 23 0 49 -34 36 -47 -22 -22 -123 39 -114 67 4 14 -1 20 -24 25
-17 3 -33 14 -36 23 -7 23 -78 56 -103 48 -13 -4 -24 -2 -29 7 -12 20 -110 87
-128 87 -8 0 -15 5 -15 10 0 6 19 10 43 10 50 0 89 9 82 20 -2 4 21 -1 52 -11
52 -17 58 -18 80 -3 17 11 43 14 90 12 73 -3 92 10 41 30 -66 24 25 46 113 27
21 -5 28 -2 32 14 6 23 -37 61 -70 61 -14 0 -15 2 -4 9 11 7 9 10 -10 14 -15
3 -17 5 -6 6 10 0 37 -3 60 -8z m453 -20 c-3 -5 -15 -11 -26 -14 -17 -4 -19
-3 -9 9 12 15 44 20 35 5z m4224 -16 c0 -8 -4 -15 -10 -15 -5 0 -10 7 -10 15
0 8 5 15 10 15 6 0 10 -7 10 -15z m-4358 -43 c18 -15 45 -33 61 -40 15 -6 27
-16 27 -22 0 -13 -57 -13 -65 0 -3 5 -28 21 -55 36 -60 32 -72 54 -30 54 18 0
42 -11 62 -28z m-629 11 c-7 -2 -19 -2 -25 0 -7 3 -2 5 12 5 14 0 19 -2 13 -5z
m117 -19 c0 -2 -12 -4 -26 -4 -14 0 -23 4 -20 9 6 8 46 4 46 -5z m5590 -69
c-7 -8 -19 -15 -26 -15 -22 0 -16 26 9 43 19 13 22 13 25 0 2 -8 -2 -20 -8
-28z m-1330 -85 c0 -45 -4 -61 -21 -76 -17 -15 -19 -25 -14 -66 8 -57 -2 -108
-20 -108 -23 0 -36 63 -34 174 2 102 3 108 32 146 l30 39 14 -26 c7 -14 13
-51 13 -83z m-3440 -30 c0 -5 18 -28 40 -50 36 -36 49 -67 34 -82 -3 -3 -24
15 -47 40 -23 26 -49 52 -57 59 -8 7 -11 13 -6 13 5 0 3 7 -4 15 -11 13 -8 15
14 15 14 0 26 -4 26 -10z m4680 -161 c0 -18 -4 -28 -10 -24 -6 3 -18 -8 -28
-26 -9 -18 -36 -54 -59 -79 -24 -26 -43 -54 -43 -63 0 -9 -9 -22 -20 -29 -11
-7 -20 -22 -20 -34 0 -29 -35 -72 -49 -59 -6 7 -4 23 5 50 9 22 20 57 25 78 7
27 33 61 98 127 49 50 92 90 95 90 3 0 6 -14 6 -31z m-2292 -12 c-7 -14 -13
-17 -16 -9 -6 19 6 44 18 37 7 -4 6 -14 -2 -28z m-2294 -17 c8 0 19 -7 26 -16
17 -19 56 -41 46 -25 -11 17 31 14 70 -5 19 -9 43 -29 54 -44 l19 -27 -41 7
c-23 5 -47 6 -54 3 -14 -5 -5 -56 17 -90 12 -20 11 -25 -3 -39 -15 -16 -19
-15 -50 3 -26 15 -33 26 -33 50 -1 46 -41 96 -96 120 -42 19 -48 25 -46 49 3
33 43 49 65 27 7 -7 19 -13 26 -13z m3215 -65 c22 -60 21 -89 -3 -98 -29 -11
-49 22 -56 95 -4 40 -5 79 -2 86 8 23 37 -17 61 -83z m-3417 64 c29 -6 60 -19
70 -30 9 -10 21 -19 27 -19 6 0 11 -4 11 -10 0 -5 -9 -10 -19 -10 -11 0 -23 5
-26 10 -3 6 -30 10 -59 10 -46 0 -56 4 -70 25 -27 40 -22 42 66 24z m2392
-101 c15 -31 51 -35 68 -9 29 47 88 9 88 -56 0 -31 -28 -73 -49 -73 -15 0 -29
24 -33 55 -2 24 -8 31 -30 33 -31 4 -34 -4 -13 -32 19 -26 19 -42 -1 -50 -20
-8 -44 10 -44 32 0 8 -11 30 -25 48 -25 32 -25 35 -10 65 18 33 27 31 49 -13z
m-1764 -6 c17 -14 21 -24 15 -41 -6 -19 -9 -21 -19 -10 -18 20 -37 69 -27 69
5 0 19 -8 31 -18z m-643 -14 c3 6 12 12 20 12 9 0 13 -6 10 -14 -4 -9 3 -16
16 -20 21 -5 21 -6 3 -19 -18 -14 -18 -15 -1 -45 11 -17 17 -34 14 -37 -8 -7
-94 31 -141 63 -35 23 -54 61 -25 49 47 -19 48 -19 54 1 4 18 8 19 25 9 16 -9
22 -9 25 1z m1987 -44 c5 -16 13 -38 18 -49 5 -12 4 -51 -1 -95 -9 -68 -8 -79
12 -120 12 -25 24 -70 28 -100 11 -89 29 -172 49 -215 10 -22 24 -60 31 -85 7
-25 24 -70 37 -100 24 -51 26 -53 35 -30 31 83 53 94 79 40 9 -19 24 -43 34
-52 11 -12 20 -46 26 -105 9 -81 8 -92 -11 -135 -12 -27 -26 -48 -31 -48 -11
0 -9 -28 3 -46 8 -14 57 -25 57 -13 0 17 27 9 49 -15 16 -17 22 -32 18 -48 -3
-13 -9 -45 -12 -73 -4 -27 -13 -76 -20 -108 -8 -33 -11 -65 -8 -73 3 -8 0 -21
-7 -29 -18 -22 -4 -64 26 -77 23 -11 29 -9 44 10 22 27 36 27 91 3 32 -15 45
-28 53 -53 10 -29 15 -33 41 -30 16 2 35 8 42 13 15 13 53 -6 53 -26 0 -19
-70 -84 -91 -85 -9 0 -30 -7 -45 -15 -25 -13 -30 -13 -40 -1 -6 9 -15 11 -23
6 -8 -4 -28 -3 -45 2 -17 5 -49 14 -71 18 -23 5 -47 10 -54 12 -7 2 -18 -6
-24 -17 -25 -40 -57 -61 -57 -35 0 6 -7 10 -15 10 -8 0 -15 5 -15 10 0 6 -8
10 -18 10 -24 0 -42 19 -42 46 0 15 -10 26 -30 34 -24 10 -33 23 -46 66 -8 30
-24 58 -33 64 -28 14 -34 50 -9 50 10 0 28 5 39 10 16 9 18 18 13 53 -3 23
-15 65 -27 92 -11 28 -22 74 -24 103 -2 28 -4 76 -6 105 -1 28 -6 57 -10 63
-3 6 -7 36 -8 65 -1 30 -7 65 -14 79 -21 41 -33 119 -35 215 0 54 -8 114 -19
150 -10 33 -19 95 -20 139 -1 43 -6 86 -11 96 -6 10 -10 32 -10 48 0 41 -27
102 -45 102 -11 0 -14 9 -12 33 2 24 7 31 20 29 23 -4 59 56 53 87 -9 55 22
67 38 15z m-2074 -58 c25 -10 53 -28 63 -42 18 -24 18 -24 -5 -24 -13 0 -36 7
-52 15 -16 9 -36 13 -43 10 -20 -7 -59 21 -82 61 -12 20 -21 37 -21 40 0 2 21
-6 48 -19 26 -13 67 -32 92 -41z m-105 -48 c5 -5 3 -8 -5 -8 -8 1 -31 15 -50
32 l-35 31 40 -23 c22 -13 44 -27 50 -32z m150 -58 c19 -8 19 -9 -2 -9 -12 -1
-25 4 -28 9 -7 12 2 12 30 0z m561 -34 c10 -8 16 -18 12 -22 -10 -9 -58 12
-58 26 0 14 23 12 46 -4z m258 -61 c3 -8 16 -20 28 -26 26 -11 74 -79 57 -79
-6 0 -23 8 -37 18 -15 10 -35 22 -44 25 -10 4 -18 13 -18 21 0 9 -9 20 -20 26
-11 6 -20 15 -20 20 0 16 47 11 54 -5z m-550 -24 c15 -16 41 -31 57 -35 21 -4
29 -11 29 -27 0 -27 55 -79 84 -79 11 0 32 -9 45 -19 l24 -19 -41 -7 c-35 -6
-50 -2 -87 19 -24 15 -47 31 -50 37 -4 6 -18 14 -31 19 -14 6 -24 18 -24 28 0
10 -9 27 -21 38 -27 24 -42 52 -34 64 10 16 19 12 49 -19z m-581 -22 c8 -11
37 -28 63 -37 36 -13 50 -24 52 -40 3 -20 1 -21 -23 -12 -37 14 -45 13 -38 -6
3 -9 25 -24 48 -34 45 -19 69 -60 35 -60 -10 0 -23 7 -30 15 -7 8 -32 25 -56
37 -40 20 -60 43 -101 117 -7 13 -13 27 -13 32 0 18 49 9 63 -12z m5497 -19
c0 -5 -5 -10 -11 -10 -5 0 -7 5 -4 10 3 6 8 10 11 10 2 0 4 -4 4 -10z m-2510
-21 c0 -15 -30 -23 -42 -11 -6 6 -7 15 -4 20 7 12 46 4 46 -9z m-1280 -74 c29
-30 51 -57 48 -61 -9 -8 -50 15 -66 38 -7 10 -24 18 -38 18 -18 0 -24 5 -24
23 0 23 7 37 20 37 3 0 30 -25 60 -55z m3750 29 c0 -17 -22 -14 -28 4 -2 7 3
12 12 12 9 0 16 -7 16 -16z m-4957 -28 c21 -16 22 -26 2 -26 -8 0 -19 9 -25
20 -12 23 -3 25 23 6z m897 -16 c19 -16 30 -29 25 -30 -6 0 -26 13 -45 30 -19
16 -30 29 -25 30 6 0 26 -13 45 -30z m230 -20 c6 -11 8 -25 4 -31 -4 -6 0 -15
7 -20 8 -4 14 -12 14 -16 2 -27 69 -113 89 -113 23 0 46 -35 46 -70 0 -20 11
-58 25 -84 16 -30 25 -63 25 -91 0 -34 7 -53 34 -88 19 -25 42 -60 52 -78 15
-31 15 -33 -1 -45 -20 -15 -13 -46 8 -38 18 7 88 -71 81 -90 -3 -8 -14 -16
-25 -19 -10 -3 -19 -13 -19 -23 0 -9 3 -14 6 -11 7 7 62 -28 82 -51 6 -9 12
-29 12 -45 0 -35 42 -129 71 -158 11 -11 19 -33 19 -53 0 -19 4 -46 10 -61 8
-20 6 -29 -10 -45 -11 -11 -27 -20 -36 -20 -37 0 -161 23 -184 35 -14 6 -54
18 -90 24 -36 7 -70 17 -77 23 -15 12 -165 48 -175 42 -5 -3 -8 -1 -8 5 0 16
-88 25 -128 13 -21 -6 -63 -14 -96 -18 l-58 -7 16 32 17 31 -60 0 c-33 0 -71
-7 -87 -15 -16 -8 -42 -15 -58 -15 -23 0 -27 4 -23 19 4 17 -1 20 -32 23 -31
3 -36 6 -34 26 3 20 -1 22 -45 22 -26 0 -54 5 -62 10 -13 9 -11 14 12 34 15
13 24 27 21 30 -10 9 -58 7 -69 -3 -8 -9 -56 -14 -95 -12 -9 1 -19 10 -22 20
-3 13 -17 21 -45 26 -24 4 -52 18 -71 37 -35 34 -36 51 -3 56 30 5 27 13 -12
38 -22 14 -57 23 -107 27 -61 5 -149 29 -149 40 0 1 53 3 118 5 64 1 142 6
172 10 47 6 55 10 58 30 3 17 8 21 26 16 14 -3 27 1 35 10 10 12 9 17 -8 25
-11 6 -29 11 -40 11 -12 0 -21 4 -21 9 0 13 56 12 108 -1 29 -7 41 -15 38 -24
-3 -8 7 -20 24 -29 32 -17 37 -33 18 -54 -11 -11 -3 -13 44 -8 75 7 187 -9
210 -30 15 -13 45 -17 151 -20 165 -3 207 2 207 27 0 10 -4 21 -9 24 -5 3 -14
20 -20 37 l-11 31 61 -6 c34 -3 72 -9 85 -12 77 -20 3 109 -108 186 -20 14
-33 30 -31 38 4 10 9 10 27 -1 29 -20 96 -27 96 -11 0 15 -93 64 -120 64 -11
0 -23 8 -29 17 -8 15 -11 15 -25 4 -13 -11 -22 -11 -41 -3 -32 15 -32 30 1 42
17 7 24 15 20 25 -3 8 2 30 12 49 17 34 35 41 121 50 14 2 26 7 28 12 3 10
-28 45 -81 89 -35 29 -47 55 -25 55 17 0 72 -33 91 -55 9 -11 18 -18 18 -15 9
47 7 80 -6 90 -7 7 -14 19 -14 26 0 21 38 17 50 -6z m-486 -9 c10 -10 34 -22
54 -26 45 -8 72 -22 72 -37 0 -15 -66 -3 -126 23 -65 29 -79 40 -62 50 21 14
44 10 62 -10z m-522 -52 c15 -16 32 -29 38 -29 16 0 104 -43 112 -54 13 -20
-11 -18 -41 3 -16 12 -41 21 -56 21 -14 0 -43 11 -63 25 -20 14 -47 25 -60 25
-32 0 -62 18 -62 36 0 13 9 15 53 9 40 -5 58 -13 79 -36z m-367 -20 c32 -12
53 -15 59 -9 16 16 45 11 58 -10 9 -15 24 -20 52 -20 40 0 86 -30 86 -55 0 -6
11 -18 25 -25 14 -7 25 -19 25 -26 0 -24 -12 -44 -24 -37 -6 3 -7 2 -3 -3 9
-9 14 -11 47 -13 30 -2 26 -37 -5 -45 -29 -7 -59 -2 -135 26 -39 14 -67 18
-100 13 -41 -6 -46 -4 -46 13 0 16 5 18 35 11 20 -4 42 -4 53 2 11 6 42 7 73
4 47 -6 56 -5 62 11 4 10 2 19 -5 22 -7 2 -12 9 -12 16 0 9 -13 12 -48 8 -31
-2 -61 2 -86 12 -21 9 -47 16 -56 16 -10 0 -20 5 -22 12 -2 6 -31 26 -64 43
-32 17 -61 39 -62 49 -4 20 2 19 93 -15z m778 11 c34 -17 34 -33 0 -49 -24
-11 -29 -9 -52 14 -25 25 -25 27 -7 40 10 8 22 13 25 12 3 -2 18 -9 34 -17z
m335 -32 c56 -37 92 -68 92 -80 0 -15 -48 -8 -89 14 -53 28 -85 63 -78 82 9
23 23 20 75 -16z m5270 -45 c14 -24 -6 -61 -40 -79 -15 -8 -28 -21 -28 -28 0
-19 -48 -30 -66 -15 -9 7 -14 25 -12 43 3 27 7 31 33 32 51 2 55 4 55 16 0 13
29 48 41 48 4 0 12 -8 17 -17z m-6918 -8 c11 -13 10 -14 -4 -9 -9 3 -16 10
-16 15 0 13 6 11 20 -6z m1397 -35 c7 0 17 -9 23 -20 10 -18 8 -20 -19 -20
-21 0 -35 8 -50 29 -28 38 -26 43 7 25 15 -7 32 -14 39 -14z m-1015 -47 c-2
-12 2 -24 8 -28 14 -9 13 -25 -2 -25 -19 1 -51 49 -44 66 9 24 42 13 38 -13z
m-107 -64 c85 -45 80 -52 -30 -46 -55 2 -110 1 -121 -4 -18 -6 -21 -5 -17 12
3 10 14 19 24 19 11 0 19 6 19 14 0 13 18 19 70 25 8 0 33 -8 55 -20z m6563
-46 c23 -13 30 -24 29 -43 -2 -14 -8 -25 -15 -24 -6 1 -25 2 -41 3 -34 1 -48
29 -31 61 13 24 20 25 58 3z m-5209 -39 c9 -3 11 -8 5 -14 -11 -11 -94 17 -94
31 0 6 45 -2 89 -17z m-1441 -7 c6 -7 9 -22 7 -32 -2 -11 -4 -22 -4 -24 -3
-13 -41 35 -41 51 0 21 23 24 38 5z m528 -58 c35 -33 31 -49 -9 -40 -18 5 -42
13 -54 19 -12 7 -34 12 -48 12 -31 0 -65 16 -65 32 0 7 24 9 76 5 60 -4 81
-10 100 -28z m717 -17 c26 -23 6 -37 -34 -23 -18 6 -48 8 -66 5 -43 -8 -139
25 -108 37 33 12 188 -2 208 -19z m-523 -21 c23 -11 43 -15 52 -10 7 5 25 9
41 9 40 0 38 -36 -3 -42 -17 -3 -33 -1 -36 3 -2 4 -38 10 -79 14 -76 7 -94 22
-44 36 13 4 25 7 27 8 2 1 20 -7 42 -18z m590 9 c0 -5 -9 -10 -20 -10 -11 0
-20 5 -20 10 0 6 9 10 20 10 11 0 20 -4 20 -10z m248 -12 c15 -15 15 -28 1
-28 -11 0 -39 24 -39 34 0 11 26 6 38 -6z m-1320 -53 c-3 -3 -13 -2 -22 1 -14
5 -15 9 -4 15 13 8 36 -6 26 -16z m1162 -51 c0 -17 -12 -18 -28 -2 -18 18 -15
27 8 21 11 -3 20 -12 20 -19z m-645 4 c13 -13 -89 -27 -110 -16 -11 6 -21 11
-22 10 -2 -1 -11 -2 -20 -2 -15 0 -15 2 -4 9 15 10 147 9 156 -1z m794 -29
l24 -19 -26 0 c-28 0 -77 19 -77 30 0 25 39 20 79 -11z m-1374 13 c27 -2 28
-3 13 -18 -14 -14 -22 -15 -49 -5 -17 6 -47 11 -66 11 -19 0 -32 4 -29 9 3 5
27 8 53 6 27 -1 61 -3 78 -3z m113 -14 c-4 -28 -24 -34 -31 -9 -6 22 0 31 20
31 9 0 13 -8 11 -22z m777 12 c8 -13 -20 -24 -41 -16 -20 8 -9 26 16 26 10 0
22 -5 25 -10z m240 -33 c19 -10 19 -10 -3 -20 -18 -8 -30 -7 -50 5 -41 25 -41
42 -1 33 19 -4 43 -12 54 -18z m-1207 -39 c-2 -6 -10 -14 -16 -16 -7 -2 -10 2
-6 12 7 18 28 22 22 4z m3648 -63 c7 -39 -12 -77 -27 -53 -10 16 -12 72 -2 81
14 14 22 6 29 -28z m-3480 -40 c4 -13 -68 -46 -103 -47 -62 -2 -97 26 -48 38
14 3 25 10 25 16 0 12 123 6 126 -7z m-299 -21 c-3 -3 -12 -4 -19 -1 -8 3 -5
6 6 6 11 1 17 -2 13 -5z m643 -34 c0 -5 -13 -10 -30 -10 -16 0 -30 4 -30 8 0
4 14 9 30 10 17 1 30 -2 30 -8z m-367 -47 c4 -3 2 -12 -4 -20 -9 -10 -8 -17 1
-28 16 -19 0 -41 -23 -32 -16 6 -30 57 -16 57 5 0 9 7 9 15 0 15 21 21 33 8z
m5454 -15 c-3 -8 -6 -5 -6 6 -1 11 2 17 5 13 3 -3 4 -12 1 -19z m-5742 3 c9
-15 -27 -30 -58 -24 -22 4 -25 8 -16 19 13 16 65 19 74 5z m202 -33 c-3 -8 -6
-5 -6 6 -1 11 2 17 5 13 3 -3 4 -12 1 -19z m-17 -35 c14 -6 34 -14 44 -17 10
-4 16 -9 13 -13 -12 -11 -62 -12 -90 -1 -23 9 -30 8 -40 -5 -14 -18 -62 -27
-62 -12 0 6 8 9 18 8 9 -2 17 4 17 12 0 8 8 15 19 15 10 0 24 7 31 15 7 8 15
13 19 12 3 -2 17 -8 31 -14z m4912 -100 c34 -31 11 -113 -32 -113 -33 0 -52
67 -34 114 8 21 43 20 66 -1z m-4732 -4 c0 -12 -19 -21 -30 -14 -6 4 -8 10 -6
14 7 10 36 10 36 0z m5226 -147 c-12 -11 -18 7 -10 30 l8 23 4 -23 c2 -13 1
-26 -2 -30z m-33 -51 c2 -10 1 -25 -4 -32 -6 -10 -9 -8 -9 8 0 12 -4 25 -10
28 -5 3 -10 13 -10 22 0 21 26 0 33 -26z m-4346 -2 c6 -13 16 -53 23 -89 11
-64 63 -187 104 -245 34 -49 169 -177 201 -190 17 -7 41 -22 54 -34 12 -11 44
-28 70 -38 25 -9 48 -20 51 -24 3 -4 26 -15 52 -23 34 -12 53 -14 73 -6 14 5
51 10 80 10 39 0 56 4 63 16 5 10 18 14 33 12 21 -3 19 -5 -18 -22 -23 -11
-40 -23 -37 -27 2 -5 -8 -16 -23 -26 -21 -14 -46 -18 -108 -18 -119 1 -192 18
-302 70 -84 41 -110 59 -183 134 -90 91 -149 187 -177 285 -15 57 -33 214 -26
233 8 20 57 8 70 -18z m779 23 c35 -24 36 -85 1 -104 -17 -9 -24 -7 -39 12
-18 22 -25 80 -11 93 8 9 35 9 49 -1z m3516 -155 c-6 -12 -13 -30 -16 -40 -3
-9 -11 -16 -17 -15 -6 2 -13 -8 -15 -22 -5 -27 -61 -90 -80 -90 -7 0 -15 -9
-19 -20 -9 -27 -93 -85 -202 -139 -91 -45 -162 -61 -282 -61 -121 -1 -170 11
-269 66 -73 41 -120 83 -151 134 -45 76 -13 96 40 25 19 -24 48 -51 65 -59 16
-8 47 -29 68 -45 42 -33 42 -34 139 -56 93 -21 126 -19 213 10 41 14 87 25
102 25 28 0 107 44 176 99 21 17 47 31 57 31 10 0 19 4 19 8 0 16 88 102 104
102 15 0 41 44 38 62 -1 4 5 5 13 2 10 -4 15 0 16 12 0 13 2 14 6 6 3 -8 1
-24 -5 -35z m-2342 -70 c0 -14 -19 -37 -31 -37 -10 0 -20 30 -13 41 8 14 44
11 44 -4z m210 -12 c0 -8 -4 -15 -10 -15 -5 0 -10 7 -10 15 0 8 5 15 10 15 6
0 10 -7 10 -15z m488 -119 c4 -18 -32 -22 -57 -7 -12 8 -12 12 -2 25 15 18 54
7 59 -18z m-3417 -97 c14 -27 -4 -42 -44 -34 -22 4 -31 -1 -45 -25 -17 -28
-18 -28 -30 -9 -7 11 -16 17 -21 15 -5 -3 -11 4 -14 15 -9 34 28 58 90 59 43
0 54 -4 64 -21z m55 -48 c-13 -20 -26 -11 -26 16 0 25 1 26 16 11 9 -9 13 -21
10 -27z m2419 -3 c15 -7 28 -22 30 -37 3 -14 10 -45 15 -69 8 -34 7 -47 -5
-66 -15 -23 -14 -25 12 -45 48 -36 53 -41 53 -57 0 -9 -13 -29 -30 -46 -16
-16 -30 -34 -30 -39 0 -19 -40 -54 -48 -42 -4 6 -19 14 -33 18 -43 11 -79 121
-49 151 6 6 1 26 -14 55 -20 40 -22 54 -15 103 4 31 13 64 19 72 15 17 60 18
95 2z m-2475 -28 c0 -5 -9 -10 -20 -10 -11 0 -20 5 -20 10 0 6 9 10 20 10 11
0 20 -4 20 -10z m-44 -122 c-8 -17 -24 -35 -36 -40 -20 -7 -22 -6 -16 19 7 30
43 66 56 58 5 -3 3 -20 -4 -37z m49 -28 c3 -5 16 -10 28 -11 12 0 16 -3 10 -6
-7 -2 -13 -11 -13 -19 0 -8 -10 -14 -24 -14 -14 0 -28 -4 -31 -10 -10 -17 -25
-11 -25 10 0 20 28 60 42 60 4 0 10 -4 13 -10z m201 -63 c1 -15 3 -28 5 -30 2
-1 12 -6 22 -12 10 -5 19 -14 20 -20 4 -19 -43 -16 -72 4 -19 14 -31 17 -33
10 -2 -6 -27 -14 -54 -16 l-51 -5 6 43 c6 41 9 44 41 50 19 4 53 6 75 5 36 -1
40 -3 41 -29z m-215 -110 c-8 -8 -11 -7 -11 4 0 20 13 34 18 19 3 -7 -1 -17
-7 -23z m287 -57 c29 -13 39 -33 16 -36 -25 -4 -54 -17 -54 -25 0 -17 -37 -9
-55 11 -16 18 -16 20 -2 20 9 0 24 11 34 25 10 13 20 23 23 21 3 -1 20 -9 38
-16z m2447 0 c0 -22 -29 -18 -33 3 -3 14 1 18 15 15 10 -2 18 -10 18 -18z
m105 -5 c19 -21 21 -25 7 -25 -9 0 -17 -4 -17 -9 0 -18 -30 -19 -52 -1 -22 18
-23 18 -4 39 25 27 37 26 66 -4z m-2500 -84 c0 -5 -7 -12 -16 -15 -22 -9 -24
-8 -24 9 0 8 9 15 20 15 11 0 20 -4 20 -9z m-120 -100 c0 -11 -4 -23 -10 -26
-6 -4 -10 5 -10 19 0 14 5 26 10 26 6 0 10 -9 10 -19z m770 -80 c0 -17 -18
-21 -24 -6 -3 9 0 15 9 15 8 0 15 -4 15 -9z m-1330 -235 c0 -3 -4 -8 -10 -11
-5 -3 -10 -1 -10 4 0 6 5 11 10 11 6 0 10 -2 10 -4z m-163 -57 c3 -19 14 -34
25 -36 20 -6 24 -18 7 -29 -22 -13 -57 17 -61 52 -2 19 -2 37 1 39 12 12 22 2
28 -26z m983 -29 c0 -5 -4 -10 -10 -10 -5 0 -10 5 -10 10 0 6 5 10 10 10 6 0
10 -4 10 -10z m90 -129 c0 -5 -6 -14 -14 -20 -11 -9 -16 -9 -21 0 -4 6 -1 15
6 20 18 11 29 11 29 0z m-1640 -173 c0 -13 3 -40 6 -60 5 -31 4 -38 -10 -38
-9 0 -16 -4 -16 -10 0 -5 7 -10 15 -10 8 0 15 5 15 11 0 6 9 8 23 3 12 -4 40
-10 62 -13 53 -8 56 -31 15 -115 -25 -50 -29 -68 -22 -83 9 -16 6 -21 -20 -32
-19 -9 -33 -10 -37 -4 -10 16 -89 32 -95 19 -8 -18 -27 16 -24 44 1 14 -1 31
-6 38 -4 8 2 24 18 43 34 40 33 49 -8 49 -24 0 -35 5 -38 18 -7 26 2 42 23 42
12 0 16 -5 13 -15 -5 -11 1 -15 19 -15 29 0 32 3 41 46 6 28 4 32 -21 39 -20
5 -31 2 -40 -11 -12 -16 -13 -14 -13 14 0 33 1 33 60 36 14 1 24 6 23 14 -2 6
2 12 7 12 6 0 10 -10 10 -22z m7413 -25 c-7 -2 -19 -2 -25 0 -7 3 -2 5 12 5
14 0 19 -2 13 -5z m84 -19 c-3 -3 -12 -4 -19 -1 -8 3 -5 6 6 6 11 1 17 -2 13
-5z m-6964 -230 c9 -10 -4 -34 -18 -34 -20 0 -30 21 -14 31 17 10 24 11 32 3z
m-515 -165 c5 -11 12 -19 17 -17 6 2 11 -7 13 -19 3 -20 -1 -23 -35 -25 -96
-3 -123 0 -123 17 0 23 61 57 77 43 9 -7 14 -6 19 6 8 22 23 20 32 -5z m7822
-709 c0 -5 -2 -10 -4 -10 -3 0 -8 5 -11 10 -3 6 -1 10 4 10 6 0 11 -4 11 -10z
m-7670 -19 c0 -18 -18 -21 -30 -6 -10 13 -9 15 9 15 11 0 21 -4 21 -9z m7725
-32 c11 -17 -2 -21 -24 -7 -28 17 -29 43 -2 28 11 -5 23 -15 26 -21z m-1358
-45 c-8 -8 -33 7 -46 28 -13 20 -12 20 19 -2 17 -12 29 -24 27 -26z m148 16
c11 -13 14 -20 6 -20 -13 0 -41 24 -41 34 0 12 18 5 35 -14z m1245 -10 c0 -5
-4 -10 -10 -10 -5 0 -10 5 -10 10 0 6 5 10 10 10 6 0 10 -4 10 -10z m-1126
-112 c105 -111 126 -135 126 -144 0 -4 17 -30 38 -58 46 -60 66 -96 55 -96 -5
0 -23 23 -40 51 -30 49 -125 158 -230 265 -50 50 -64 74 -45 74 5 0 48 -42 96
-92z m311 -439 c10 -30 2 -32 -12 -3 -6 13 -7 24 -3 24 5 0 12 -9 15 -21z m22
-61 c-3 -8 -6 -5 -6 6 -1 11 2 17 5 13 3 -3 4 -12 1 -19z m52 -108 c0 -10 -3
-8 -9 5 -12 27 -12 43 0 25 5 -8 9 -22 9 -30z m-4649 -560 c0 -5 -7 -10 -15
-10 -8 0 -15 5 -15 10 0 6 7 10 15 10 8 0 15 -4 15 -10z"/>
<path d="M9392 10564 c-11 -12 -11 -18 -2 -29 18 -22 32 -18 25 5 -4 11 -2 20
4 20 6 0 11 5 11 10 0 15 -23 11 -38 -6z"/>
<path d="M8640 9419 c0 -5 5 -7 10 -4 6 3 10 8 10 11 0 2 -4 4 -10 4 -5 0 -10
-5 -10 -11z"/>
<path d="M8057 9082 c-12 -2 -16 -9 -13 -19 3 -8 -6 -31 -21 -50 -23 -30 -24
-34 -8 -26 19 10 85 78 85 87 0 7 -25 12 -43 8z"/>
<path d="M8051 8923 c-17 -21 -31 -45 -31 -55 0 -9 -5 -20 -11 -23 -19 -12
-28 -53 -19 -84 10 -36 -9 -103 -47 -163 -13 -21 -19 -38 -14 -38 21 0 41 13
41 27 0 8 26 39 57 69 51 48 56 55 46 76 -21 44 -22 58 -4 110 24 71 33 118
21 118 -4 0 -22 -17 -39 -37z"/>
<path d="M7883 8853 c-24 -25 -33 -44 -33 -69 0 -44 9 -43 40 4 14 20 31 43
38 51 14 15 13 43 -3 46 -5 1 -25 -13 -42 -32z"/>
<path d="M8130 8695 c0 -8 4 -15 10 -15 5 0 7 7 4 15 -4 8 -8 15 -10 15 -2 0
-4 -7 -4 -15z"/>
<path d="M7823 8595 c0 -22 2 -30 4 -17 2 12 2 30 0 40 -3 9 -5 -1 -4 -23z"/>
<path d="M8030 8586 c-6 -9 -10 -21 -8 -28 3 -8 9 -4 17 10 15 28 9 39 -9 18z"/>
<path d="M8151 8574 c0 -11 3 -14 6 -6 3 7 2 16 -1 19 -3 4 -6 -2 -5 -13z"/>
<path d="M8720 8351 c0 -11 -5 -21 -11 -23 -12 -4 -19 -88 -7 -88 3 0 13 -2
20 -5 15 -6 38 32 38 63 0 22 -22 72 -32 72 -5 0 -8 -9 -8 -19z"/>
<path d="M8410 8327 c-38 -19 -45 -27 -48 -55 -3 -33 -3 -33 35 -29 52 5 83
33 83 74 0 39 -8 40 -70 10z"/>
<path d="M8656 8265 c-9 -24 -8 -45 3 -45 14 0 22 30 13 47 -8 13 -10 13 -16
-2z"/>
<path d="M8230 8256 c0 -15 27 -25 48 -19 25 9 12 33 -18 33 -19 0 -30 -5 -30
-14z"/>
<path d="M6690 8230 c0 -5 5 -10 10 -10 6 0 10 5 10 10 0 6 -4 10 -10 10 -5 0
-10 -4 -10 -10z"/>
<path d="M8835 8227 c-4 -10 -20 -24 -36 -33 -28 -14 -39 -34 -20 -34 18 0 73
58 68 72 -3 10 -7 8 -12 -5z"/>
<path d="M8280 8130 c0 -5 4 -10 9 -10 6 0 13 5 16 10 3 6 -1 10 -9 10 -9 0
-16 -4 -16 -10z"/>
<path d="M8170 8065 c-19 -49 -3 -79 19 -37 5 10 21 24 35 32 35 18 33 25 -9
28 -30 2 -37 -1 -45 -23z"/>
<path d="M8350 8060 c-8 -5 -12 -11 -9 -14 3 -3 14 1 25 9 21 16 8 20 -16 5z"/>
<path d="M6547 8033 c-14 -13 -7 -63 8 -63 9 0 15 9 15 23 0 26 -14 50 -23 40z"/>
<path d="M7917 8024 c-13 -13 -7 -24 14 -24 11 0 19 5 17 12 -5 14 -22 21 -31
12z"/>
<path d="M7787 7985 c-15 -14 -27 -35 -27 -46 0 -11 -4 -17 -10 -14 -18 11
-11 -11 9 -30 19 -16 21 -16 50 4 16 12 34 21 39 21 13 0 42 45 42 64 0 9 -6
13 -14 10 -8 -3 -17 -1 -21 5 -11 18 -39 12 -68 -14z"/>
<path d="M8128 7982 c-30 -14 -36 -28 -15 -35 13 -4 57 12 57 22 -1 21 -17 26
-42 13z"/>
<path d="M8707 7993 c-11 -10 -8 -43 4 -43 6 0 19 5 30 11 16 8 18 13 8 25
-12 15 -31 18 -42 7z"/>
<path d="M7853 7868 c-9 -15 -12 -58 -3 -58 11 0 49 57 43 64 -10 10 -31 7
-40 -6z"/>
<path d="M7627 7801 c-26 -14 -59 -41 -73 -58 -17 -23 -34 -33 -52 -33 -47 -1
-110 -70 -97 -109 3 -12 -3 -37 -15 -60 -22 -43 -25 -67 -11 -75 12 -8 91 97
91 121 0 11 7 26 15 33 8 7 15 21 15 32 0 10 6 20 13 22 6 2 28 9 47 16 19 7
62 22 95 34 33 12 76 31 95 44 19 12 38 22 43 22 4 0 7 4 7 10 0 5 -15 7 -34
5 -22 -3 -38 1 -46 10 -17 20 -36 17 -93 -14z"/>
<path d="M8476 7799 c-15 -11 -24 -25 -21 -30 8 -12 65 -12 65 0 0 5 3 16 6
24 9 24 -23 27 -50 6z"/>
<path d="M8788 7455 c-31 -27 -37 -55 -11 -55 9 0 34 8 54 18 28 12 39 23 39
40 0 31 -46 29 -82 -3z"/>
<path d="M8850 7370 c0 -5 -6 -7 -14 -4 -8 3 -17 1 -21 -5 -3 -7 2 -11 14 -11
12 0 24 0 29 -1 4 0 8 7 10 15 2 9 -1 16 -7 16 -6 0 -11 -4 -11 -10z"/>
<path d="M8086 7311 c-3 -5 1 -14 8 -20 16 -13 32 2 21 19 -8 12 -22 13 -29 1z"/>
<path d="M9001 7144 c0 -11 3 -14 6 -6 3 7 2 16 -1 19 -3 4 -6 -2 -5 -13z"/>
<path d="M8954 7116 c-3 -14 -1 -33 6 -43 10 -16 10 -16 5 3 -4 14 0 24 10 27
8 4 12 13 9 22 -9 22 -23 18 -30 -9z"/>
<path d="M6670 6831 c0 -12 5 -21 10 -21 6 0 10 6 10 14 0 8 -4 18 -10 21 -5
3 -10 -3 -10 -14z"/>
<path d="M6610 6820 c0 -24 15 -27 24 -4 9 22 8 24 -9 24 -8 0 -15 -9 -15 -20z"/>
<path d="M8264 6751 c-17 -4 -36 -11 -42 -15 -13 -8 -16 -45 -4 -63 12 -18 55
-24 81 -11 32 17 37 35 11 43 -20 6 -20 8 -5 31 17 26 13 28 -41 15z"/>
<path d="M8375 6700 c-3 -5 1 -10 9 -10 9 0 16 5 16 10 0 6 -4 10 -9 10 -6 0
-13 -4 -16 -10z"/>
<path d="M8366 6597 c-13 -9 -17 -21 -14 -35 8 -31 -13 -43 -71 -41 -36 2 -56
-3 -70 -15 -16 -15 -21 -15 -32 -4 -19 21 -65 10 -78 -18 -6 -13 -15 -24 -21
-24 -5 0 -10 -7 -10 -15 0 -8 -4 -15 -10 -15 -20 0 -10 -19 13 -23 12 -2 3 -5
-20 -6 -25 0 -43 4 -46 12 -4 10 -7 10 -18 0 -9 -10 -10 -13 -1 -13 22 0 12
-27 -14 -39 -14 -6 -24 -17 -21 -24 2 -6 -13 -20 -32 -30 -20 -9 -49 -25 -66
-34 -50 -27 -64 -33 -80 -33 -9 0 -26 -11 -39 -23 -26 -27 -127 -85 -166 -98
-52 -16 -186 -75 -225 -99 -22 -14 -46 -23 -54 -22 -8 2 -24 -1 -35 -6 -12 -5
-34 -13 -50 -18 -31 -9 -55 -38 -43 -50 4 -4 33 -2 65 5 123 26 132 26 158 -5
13 -16 23 -36 24 -44 0 -8 15 -27 34 -42 28 -23 38 -25 68 -19 19 5 45 17 56
27 41 38 52 45 84 51 48 9 88 31 88 49 0 14 -13 16 -87 13 -86 -4 -88 -3 -91
20 -3 17 0 21 10 15 7 -4 5 2 -6 14 -18 21 -18 21 10 27 16 4 50 13 75 20 25
8 65 17 90 21 54 9 88 32 89 60 0 29 18 42 67 50 23 3 44 12 46 18 3 7 24 18
48 25 24 7 60 17 79 23 19 5 52 22 73 36 25 17 53 26 79 26 29 1 45 7 58 24
10 12 23 22 29 22 6 0 11 3 11 8 0 4 -21 6 -46 3 -25 -2 -51 2 -57 8 -15 15
-5 21 34 25 19 2 48 8 64 15 17 6 36 14 43 16 6 2 12 13 12 23 0 10 6 27 14
38 11 14 12 22 3 33 -10 12 -8 13 14 8 24 -6 27 -4 32 26 6 38 8 34 -23 42
-15 3 -33 0 -44 -8z m-816 -681 c0 -8 -13 -16 -30 -18 -34 -5 -51 9 -29 23 22
14 59 11 59 -5z"/>
<path d="M8173 6569 c-30 -11 -31 -47 -2 -45 27 1 57 41 37 48 -7 3 -23 2 -35
-3z"/>
<path d="M2782 6308 c3 -7 17 -14 31 -16 15 -2 27 -9 27 -16 0 -18 43 -56 64
-56 13 0 17 7 14 28 -2 20 -9 28 -28 30 -14 2 -33 12 -43 23 -20 21 -71 27
-65 7z"/>
<path d="M8375 6200 c-4 -6 5 -10 19 -10 14 0 26 5 26 10 0 6 -9 10 -19 10
-11 0 -23 -4 -26 -10z"/>
<path d="M3264 6039 c-8 -14 11 -33 25 -25 6 4 11 11 11 16 0 13 -29 20 -36 9z"/>
<path d="M7139 5879 c-8 -5 -28 -9 -45 -9 -16 0 -39 -6 -50 -14 -16 -12 -17
-18 -7 -34 16 -27 -6 -56 -43 -57 -37 0 -38 -25 -3 -42 15 -7 34 -24 43 -38
16 -25 20 -26 124 -24 59 0 120 -4 135 -10 16 -6 48 -11 73 -11 39 0 44 3 44
23 0 12 -10 28 -21 35 -28 18 -13 33 38 41 24 4 38 12 38 21 0 16 -23 17 -119
4 -38 -5 -47 -3 -44 7 3 8 13 16 24 17 40 8 34 20 -20 37 -31 10 -56 22 -56
26 0 5 -9 9 -20 9 -12 0 -33 6 -49 14 -17 9 -32 11 -42 5z"/>
<path d="M3710 5830 c0 -5 7 -10 15 -10 8 0 15 5 15 10 0 6 -7 10 -15 10 -8 0
-15 -4 -15 -10z"/>
<path d="M3495 5800 c-3 -5 -17 -10 -30 -10 -31 0 -43 -30 -12 -31 55 -3 62
-5 62 -19 0 -9 -18 -21 -42 -30 -24 -8 -43 -21 -43 -28 0 -29 121 12 148 50 7
10 21 18 31 18 21 0 44 23 34 33 -3 4 -15 7 -25 7 -10 0 -18 5 -18 10 0 6 -22
10 -49 10 -28 0 -53 -4 -56 -10z"/>
<path d="M3850 5730 c-26 -5 -31 -8 -18 -14 22 -10 83 -3 81 9 -3 13 -19 14
-63 5z"/>
<path d="M4026 5705 c-8 -21 31 -40 50 -24 8 6 14 18 14 25 0 19 -56 18 -64
-1z"/>
<path d="M4147 5713 c-2 -5 -7 -20 -11 -35 -5 -23 -4 -26 11 -21 22 8 33 23
33 46 0 17 -25 24 -33 10z"/>
<path d="M3773 5673 c-7 -2 -13 -11 -13 -19 0 -10 14 -14 55 -14 30 0 55 5 55
10 0 6 -13 10 -29 10 -17 0 -33 5 -36 10 -7 11 -13 11 -32 3z"/>
<path d="M3640 5650 c0 -5 9 -10 20 -10 11 0 20 5 20 10 0 6 -9 10 -20 10 -11
0 -20 -4 -20 -10z"/>
<path d="M4028 5633 c-27 -13 -48 -31 -48 -38 0 -7 -13 -16 -29 -20 -32 -7
-47 -40 -29 -62 8 -10 8 -17 0 -25 -8 -8 -14 -4 -21 15 -20 51 -69 19 -78 -50
-5 -41 8 -62 44 -67 10 -2 22 -15 28 -30 8 -22 5 -35 -13 -66 -12 -22 -22 -41
-22 -44 0 -2 26 -2 58 1 42 4 62 2 73 -8 8 -8 30 -23 49 -33 19 -11 40 -27 46
-35 8 -11 31 -17 73 -19 34 -2 78 -10 98 -18 28 -12 41 -13 64 -4 59 25 38 50
-44 50 -31 0 -40 5 -49 26 -11 24 -10 29 16 49 21 17 26 28 21 44 -7 22 -1 25
42 21 16 -1 26 6 33 25 15 39 13 44 -22 53 -44 11 -45 28 -3 48 20 9 40 27 45
39 5 12 29 34 54 49 25 15 46 30 46 33 0 4 -17 22 -37 41 -43 40 -96 54 -151
41 -20 -5 -55 -9 -78 -9 -50 0 -60 -9 -34 -27 31 -22 24 -34 -17 -33 -21 1
-56 -2 -78 -6 l-40 -7 24 22 c13 11 29 22 35 22 6 1 18 2 26 3 8 0 15 10 15
21 0 29 -40 28 -97 -2z m297 -32 c7 -13 -43 -51 -67 -51 -17 0 -18 2 -3 30 15
30 56 42 70 21z m-135 -128 c0 -5 -4 -14 -9 -21 -6 -10 -10 -9 -14 7 -3 14 0
21 9 21 8 0 14 -3 14 -7z m-200 -22 c0 -13 -37 -24 -52 -15 -8 5 -6 10 8 15
27 11 44 11 44 0z m120 -30 c0 -11 -39 -25 -47 -18 -3 3 -2 10 2 16 8 13 45
15 45 2z"/>
<path d="M3881 5626 c-6 -8 -21 -14 -34 -14 -33 0 -77 -20 -83 -37 -3 -8 -24
-25 -45 -37 -21 -12 -39 -25 -39 -30 0 -16 47 -7 65 12 10 11 28 20 41 20 13
0 35 11 50 25 17 16 39 25 59 25 18 0 38 7 45 15 13 15 13 15 -34 29 -8 3 -19
-1 -25 -8z"/>
<path d="M6871 5564 c-7 -8 -11 -18 -7 -21 10 -10 57 8 53 20 -6 18 -30 19
-46 1z"/>
<path d="M3438 5547 c-21 -12 -38 -29 -38 -37 0 -9 -5 -21 -10 -26 -15 -15 -2
-44 19 -44 39 0 77 60 69 108 -3 20 -3 20 -40 -1z"/>
<path d="M3618 5426 c-33 -24 -19 -33 52 -32 62 1 70 3 70 20 0 16 -6 18 -40
13 -22 -3 -43 -1 -46 4 -7 12 -16 11 -36 -5z"/>
<path d="M4382 5433 c1 -5 -4 -19 -11 -31 -11 -21 -11 -23 6 -20 19 3 33 58
14 58 -6 0 -10 -3 -9 -7z"/>
<path d="M4562 5417 c-29 -31 -28 -47 3 -47 22 0 25 4 25 35 0 19 -1 35 -3 35
-2 0 -13 -10 -25 -23z"/>
<path d="M3508 5394 c-27 -13 -48 -31 -48 -39 0 -26 46 -17 84 18 58 53 44 61
-36 21z"/>
<path d="M3735 5371 c-3 -5 2 -17 11 -26 16 -15 18 -15 33 0 14 14 14 17 1 25
-19 12 -37 13 -45 1z"/>
<path d="M4489 5350 c-65 -18 -90 -52 -49 -65 11 -3 20 -12 20 -20 0 -20 26
-25 49 -8 17 11 19 18 11 28 -8 9 -8 15 0 20 12 7 14 42 3 48 -5 2 -20 1 -34
-3z"/>
<path d="M3340 5340 c-13 -9 -13 -11 0 -20 8 -5 23 -10 32 -10 9 0 24 -3 33
-7 16 -6 16 -4 0 20 -18 28 -40 34 -65 17z"/>
<path d="M3532 5231 c-9 -5 -2 -10 23 -14 38 -6 65 -1 65 14 0 11 -71 12 -88
0z"/>
<path d="M7608 5063 c23 -2 59 -2 80 0 20 2 1 4 -43 4 -44 0 -61 -2 -37 -4z"/>
<path d="M6903 4963 c-7 -2 -13 -10 -13 -16 0 -7 -9 -18 -21 -25 -17 -11 -27
-10 -63 7 -49 24 -79 27 -95 7 -30 -36 18 -63 119 -68 62 -3 65 -2 62 20 -3
19 1 22 35 22 21 0 45 5 53 10 13 9 12 13 -9 30 -23 20 -43 24 -68 13z"/>
<path d="M7090 4950 c19 -13 30 -13 30 0 0 6 -10 10 -22 10 -19 0 -20 -2 -8
-10z"/>
<path d="M3166 4905 c-28 -26 -51 -32 -61 -15 -12 19 -25 10 -20 -13 4 -15 1
-28 -8 -36 -14 -11 -12 -51 2 -51 4 0 16 7 28 15 20 14 25 14 55 -4 24 -15 34
-17 40 -8 5 8 8 6 8 -7 0 -14 5 -17 20 -13 21 5 77 -37 73 -54 -2 -5 6 -13 17
-19 11 -6 18 -15 15 -20 -7 -11 32 -33 45 -25 6 3 34 8 62 10 50 4 141 26 338
82 100 28 210 41 210 25 0 -17 -15 -23 -138 -48 -64 -13 -126 -28 -137 -32
-133 -57 -165 -82 -105 -82 17 0 30 -4 30 -8 0 -15 -33 -39 -73 -53 -68 -24
-77 -67 -11 -54 29 5 36 3 42 -15 7 -18 18 -22 67 -26 60 -4 135 17 135 38 0
5 11 20 25 34 17 17 24 32 20 44 -8 24 56 64 91 57 18 -3 36 5 66 29 43 37 69
42 88 19 20 -25 47 -17 77 21 26 35 26 37 8 50 -10 8 -36 14 -56 14 -35 0 -38
2 -36 27 3 38 -43 55 -73 28 -16 -14 -22 -15 -35 -5 -8 7 -15 23 -15 37 0 28
-25 41 -51 25 -29 -19 -49 -14 -59 13 -11 28 -28 33 -36 10 -4 -8 -11 -15 -17
-15 -6 0 -26 -14 -43 -31 -29 -29 -40 -32 -96 -33 -46 -1 -73 -7 -99 -24 -47
-28 -63 -28 -77 3 -11 23 -17 26 -52 22 -32 -3 -43 0 -51 14 -5 11 -21 19 -34
19 -14 0 -25 5 -25 11 0 17 -22 34 -68 52 -54 22 -54 22 -86 -8z"/>
<path d="M4559 4791 c-30 -31 -36 -59 -19 -92 13 -23 37 -24 78 -3 73 36 87
35 133 -7 23 -21 50 -39 60 -39 23 0 69 21 69 31 0 4 11 20 25 35 31 34 34 84
5 84 -10 0 -30 5 -44 11 -20 10 -35 8 -73 -6 -26 -10 -55 -24 -64 -31 -27 -24
-62 -17 -81 16 -22 38 -51 39 -89 1z"/>
<path d="M7518 4693 c6 -2 18 -2 25 0 6 3 1 5 -13 5 -14 0 -19 -2 -12 -5z"/>
<path d="M2670 4571 c0 -11 -6 -24 -14 -28 -17 -10 -39 -53 -32 -61 4 -3 -4
-16 -15 -28 l-22 -23 59 1 c58 1 94 14 94 32 0 5 -8 15 -17 22 -12 8 -18 26
-18 56 0 32 -4 43 -17 46 -13 2 -18 -3 -18 -17z"/>
<path d="M2210 4491 c0 -5 7 -11 15 -15 9 -3 15 0 15 9 0 8 -7 15 -15 15 -8 0
-15 -4 -15 -9z"/>
<path d="M4048 4461 c-38 -21 -38 -46 -1 -36 35 8 35 9 31 32 -3 18 -5 18 -30
4z"/>
<path d="M1928 4368 c9 -9 15 -9 24 0 9 9 7 12 -12 12 -19 0 -21 -3 -12 -12z"/>
<path d="M2020 4350 c0 -5 9 -10 20 -10 11 0 20 5 20 10 0 6 -9 10 -20 10 -11
0 -20 -4 -20 -10z"/>
<path d="M2750 4350 c0 -5 7 -10 15 -10 8 0 15 5 15 10 0 6 -7 10 -15 10 -8 0
-15 -4 -15 -10z"/>
<path d="M2410 4174 c0 -14 3 -14 15 -4 8 7 15 14 15 16 0 2 -7 4 -15 4 -8 0
-15 -7 -15 -16z"/>
<path d="M2134 3362 c-6 -4 -13 -15 -17 -24 -3 -10 -15 -18 -26 -18 -29 0 -33
-14 -12 -39 25 -28 41 -27 41 5 0 34 17 63 43 74 21 8 21 9 2 9 -11 0 -25 -3
-31 -7z"/>
<path d="M2537 2918 c-21 -7 -26 -15 -22 -29 5 -14 -1 -22 -22 -30 -15 -6 -23
-13 -16 -16 17 -6 53 15 53 32 0 8 15 17 35 21 20 3 34 11 32 18 -5 15 -26 17
-60 4z"/>
<path d="M3370 2465 c-10 -11 -9 -18 3 -30 15 -14 47 -11 47 5 0 37 -28 51
-50 25z"/>
<path d="M7933 9280 c-12 -10 -34 -22 -50 -26 -33 -8 -64 -27 -104 -65 -30
-28 -35 -44 -20 -67 9 -14 21 -6 105 71 22 21 56 44 74 52 21 9 32 21 32 34 0
26 -10 26 -37 1z"/>
<path d="M7940 9184 c0 -9 5 -14 12 -12 18 6 21 28 4 28 -9 0 -16 -7 -16 -16z"/>
<path d="M7917 9153 c-4 -3 -7 -11 -7 -17 0 -6 5 -5 12 2 6 6 9 14 7 17 -3 3
-9 2 -12 -2z"/>
<path d="M7868 9093 c7 -3 16 -2 19 1 4 3 -2 6 -13 5 -11 0 -14 -3 -6 -6z"/>
<path d="M2065 8740 c-3 -5 -1 -10 4 -10 6 0 11 5 11 10 0 6 -2 10 -4 10 -3 0
-8 -4 -11 -10z"/>
<path d="M4076 7684 c-16 -15 -16 -17 1 -30 29 -22 45 -17 41 13 -4 32 -20 39
-42 17z"/>
<path d="M3905 7230 c-4 -6 6 -10 22 -10 22 0 25 2 13 10 -19 12 -27 12 -35 0z"/>
<path d="M3520 7216 c0 -27 27 -39 63 -27 19 7 39 10 43 9 5 -2 10 2 11 7 1 6
-4 9 -12 7 -7 -1 -16 2 -20 8 -10 16 -85 13 -85 -4z"/>
<path d="M3450 7030 c0 -5 7 -7 15 -4 8 4 15 8 15 10 0 2 -7 4 -15 4 -8 0 -15
-4 -15 -10z"/>
</g>
</svg>
